<svg xmlns="http://www.w3.org/2000/svg" xmlns:xlink="http://www.w3.org/1999/xlink" width="350" zoomAndPan="magnify" viewBox="0 0 262.5 262.500001" height="350" preserveAspectRatio="xMidYMid meet" version="1.0"><defs><clipPath id="ab71e491c8"><path d="M 26.199219 32.75 L 235.800781 32.75 L 235.800781 229.625 L 26.199219 229.625 Z M 26.199219 32.75 " clip-rule="nonzero"/></clipPath><clipPath id="2af6b5a79f"><path d="M 26.199219 32.75 L 235.800781 32.75 L 235.800781 229.625 L 26.199219 229.625 Z M 26.199219 32.75 " clip-rule="nonzero"/></clipPath></defs><path fill="#c3ddda" d="M 172.253906 118.878906 C 154.285156 155.085938 157.335938 191.449219 172.253906 227.894531 L 234.136719 207.328125 L 234.136719 106.550781 C 215.113281 88.507812 192.542969 92.933594 172.253906 118.878906 Z M 172.253906 118.878906 " fill-opacity="1" fill-rule="nonzero"/><path fill="#1498b7" d="M 234.136719 34.5625 L 234.136719 106.550781 C 216.523438 106.007812 210.316406 130.59375 192.882812 131.230469 C 183.84375 131.558594 178.046875 125.21875 172.253906 118.878906 C 159.074219 95.621094 156.589844 73.992188 172.253906 55.128906 Z M 234.136719 34.5625 " fill-opacity="1" fill-rule="nonzero"/><path fill="#d6eae8" d="M 110.375 131.230469 L 92.914062 163.683594 L 110.375 207.328125 L 172.253906 227.894531 L 172.253906 118.878906 C 152.679688 76.390625 131.898438 87.253906 110.375 131.230469 Z M 110.375 131.230469 " fill-opacity="1" fill-rule="nonzero"/><path fill="#1ea6bc" d="M 172.253906 55.128906 L 172.253906 118.878906 C 166.460938 112.550781 160.664062 106.222656 151.628906 106.550781 C 134.195312 107.183594 127.984375 131.765625 110.375 131.230469 C 95.597656 97.308594 91.519531 64.617188 110.375 34.5625 Z M 172.253906 55.128906 " fill-opacity="1" fill-rule="nonzero"/><path fill="#1ea6bc" d="M 27.863281 166.191406 L 27.863281 207.328125 L 110.375 207.328125 L 110.375 166.191406 C 73.886719 121.75 41.996094 100.054688 27.863281 166.191406 Z M 27.863281 166.191406 " fill-opacity="1" fill-rule="nonzero"/><path fill="#e7f2f1" d="M 110.375 131.230469 L 110.375 166.191406 C 103.5 174.421875 96.621094 178.535156 89.746094 178.535156 C 72.898438 178.535156 65.324219 153.855469 48.492188 153.855469 C 41.617188 153.855469 34.738281 157.96875 27.863281 166.191406 L 27.863281 34.5625 L 110.375 34.5625 Z M 110.375 131.230469 " fill-opacity="1" fill-rule="nonzero"/><path fill="#ffc05a" d="M 50.554688 51.015625 L 87.683594 51.015625 L 87.683594 67.472656 L 50.554688 67.472656 Z M 50.554688 51.015625 " fill-opacity="1" fill-rule="nonzero"/><path fill="#ffc05a" d="M 54.679688 79.8125 C 58.097656 79.8125 60.867188 82.574219 60.867188 85.980469 C 60.867188 89.386719 58.097656 92.152344 54.679688 92.152344 C 51.261719 92.152344 48.492188 89.386719 48.492188 85.980469 C 48.492188 82.574219 51.261719 79.8125 54.679688 79.8125 Z M 54.679688 79.8125 " fill-opacity="1" fill-rule="nonzero"/><path fill="#ffc05a" d="M 60.867188 110.664062 C 60.867188 111.066406 60.828125 111.46875 60.75 111.867188 C 60.667969 112.265625 60.550781 112.648438 60.394531 113.023438 C 60.242188 113.398438 60.050781 113.753906 59.824219 114.089844 C 59.597656 114.429688 59.34375 114.738281 59.054688 115.027344 C 58.769531 115.3125 58.453125 115.570312 58.117188 115.792969 C 57.78125 116.019531 57.421875 116.210938 57.046875 116.363281 C 56.671875 116.519531 56.285156 116.636719 55.886719 116.714844 C 55.488281 116.792969 55.085938 116.832031 54.679688 116.832031 C 54.273438 116.832031 53.871094 116.792969 53.472656 116.714844 C 53.074219 116.636719 52.6875 116.519531 52.3125 116.363281 C 51.9375 116.210938 51.578125 116.019531 51.242188 115.792969 C 50.902344 115.570312 50.589844 115.3125 50.304688 115.027344 C 50.015625 114.738281 49.757812 114.429688 49.535156 114.089844 C 49.308594 113.753906 49.117188 113.398438 48.960938 113.023438 C 48.804688 112.648438 48.6875 112.265625 48.609375 111.867188 C 48.53125 111.46875 48.492188 111.066406 48.492188 110.664062 C 48.492188 110.257812 48.53125 109.855469 48.609375 109.460938 C 48.6875 109.0625 48.804688 108.675781 48.960938 108.300781 C 49.117188 107.925781 49.308594 107.570312 49.535156 107.234375 C 49.757812 106.898438 50.015625 106.585938 50.304688 106.300781 C 50.589844 106.011719 50.902344 105.757812 51.242188 105.53125 C 51.578125 105.308594 51.9375 105.117188 52.3125 104.960938 C 52.6875 104.808594 53.074219 104.691406 53.472656 104.609375 C 53.871094 104.53125 54.273438 104.492188 54.679688 104.492188 C 55.085938 104.492188 55.488281 104.53125 55.886719 104.609375 C 56.285156 104.691406 56.671875 104.808594 57.046875 104.960938 C 57.421875 105.117188 57.78125 105.308594 58.117188 105.53125 C 58.453125 105.757812 58.769531 106.011719 59.054688 106.300781 C 59.34375 106.585938 59.597656 106.898438 59.824219 107.234375 C 60.050781 107.570312 60.242188 107.925781 60.394531 108.300781 C 60.550781 108.675781 60.667969 109.0625 60.75 109.460938 C 60.828125 109.855469 60.867188 110.257812 60.867188 110.664062 Z M 60.867188 110.664062 " fill-opacity="1" fill-rule="nonzero"/><path fill="#ffc05a" d="M 60.867188 135.34375 C 60.867188 135.746094 60.828125 136.148438 60.75 136.546875 C 60.667969 136.945312 60.550781 137.328125 60.394531 137.703125 C 60.242188 138.078125 60.050781 138.433594 59.824219 138.769531 C 59.597656 139.105469 59.34375 139.417969 59.054688 139.707031 C 58.769531 139.992188 58.453125 140.246094 58.117188 140.472656 C 57.78125 140.699219 57.421875 140.886719 57.046875 141.042969 C 56.671875 141.199219 56.285156 141.316406 55.886719 141.394531 C 55.488281 141.472656 55.085938 141.511719 54.679688 141.511719 C 54.273438 141.511719 53.871094 141.472656 53.472656 141.394531 C 53.074219 141.316406 52.6875 141.199219 52.3125 141.042969 C 51.9375 140.886719 51.578125 140.699219 51.242188 140.472656 C 50.902344 140.246094 50.589844 139.992188 50.304688 139.707031 C 50.015625 139.417969 49.757812 139.105469 49.535156 138.769531 C 49.308594 138.433594 49.117188 138.078125 48.960938 137.703125 C 48.804688 137.328125 48.6875 136.945312 48.609375 136.546875 C 48.53125 136.148438 48.492188 135.746094 48.492188 135.34375 C 48.492188 134.9375 48.53125 134.535156 48.609375 134.136719 C 48.6875 133.742188 48.804688 133.355469 48.960938 132.980469 C 49.117188 132.605469 49.308594 132.25 49.535156 131.914062 C 49.757812 131.578125 50.015625 131.265625 50.304688 130.980469 C 50.589844 130.691406 50.902344 130.4375 51.242188 130.210938 C 51.578125 129.984375 51.9375 129.796875 52.3125 129.640625 C 52.6875 129.484375 53.074219 129.367188 53.472656 129.289062 C 53.871094 129.210938 54.273438 129.171875 54.679688 129.171875 C 55.085938 129.171875 55.488281 129.210938 55.886719 129.289062 C 56.285156 129.367188 56.671875 129.484375 57.046875 129.640625 C 57.421875 129.796875 57.78125 129.984375 58.117188 130.210938 C 58.453125 130.4375 58.769531 130.691406 59.054688 130.980469 C 59.34375 131.265625 59.597656 131.578125 59.824219 131.914062 C 60.050781 132.25 60.242188 132.605469 60.394531 132.980469 C 60.550781 133.355469 60.667969 133.742188 60.75 134.136719 C 60.828125 134.535156 60.867188 134.9375 60.867188 135.34375 Z M 60.867188 135.34375 " fill-opacity="1" fill-rule="nonzero"/><g clip-path="url(#ab71e491c8)"><path fill="#3a322b" d="M 50.554688 69.136719 L 87.683594 69.136719 C 88.601562 69.136719 89.347656 68.390625 89.347656 67.46875 L 89.347656 51.015625 C 89.347656 50.097656 88.601562 49.351562 87.683594 49.351562 L 50.554688 49.351562 C 49.636719 49.351562 48.890625 50.097656 48.890625 51.015625 L 48.890625 67.46875 C 48.890625 68.390625 49.636719 69.136719 50.554688 69.136719 Z M 52.21875 52.683594 L 86.019531 52.683594 L 86.019531 65.804688 L 52.21875 65.804688 Z M 123.234375 64.203125 C 123.523438 63.328125 124.464844 62.855469 125.335938 63.144531 L 158.339844 74.117188 C 159.210938 74.40625 159.683594 75.347656 159.394531 76.222656 C 159.164062 76.921875 158.515625 77.363281 157.816406 77.363281 C 157.644531 77.363281 157.464844 77.335938 157.292969 77.28125 L 124.289062 66.308594 C 123.417969 66.019531 122.945312 65.078125 123.234375 64.203125 Z M 159.394531 92.675781 C 159.164062 93.375 158.515625 93.820312 157.816406 93.820312 C 157.644531 93.820312 157.464844 93.792969 157.292969 93.734375 L 124.289062 82.765625 C 123.417969 82.476562 122.945312 81.53125 123.234375 80.65625 C 123.523438 79.785156 124.464844 79.3125 125.335938 79.601562 L 158.339844 90.570312 C 159.210938 90.859375 159.683594 91.800781 159.394531 92.675781 Z M 159.394531 157.121094 C 159.164062 157.820312 158.515625 158.261719 157.816406 158.261719 C 157.644531 158.261719 157.464844 158.234375 157.292969 158.175781 L 124.289062 147.207031 C 123.417969 146.917969 122.945312 145.976562 123.234375 145.101562 C 123.523438 144.226562 124.464844 143.753906 125.335938 144.042969 L 158.339844 155.015625 C 159.210938 155.304688 159.683594 156.246094 159.394531 157.121094 Z M 159.394531 173.574219 C 159.164062 174.273438 158.515625 174.714844 157.816406 174.714844 C 157.644531 174.714844 157.464844 174.6875 157.292969 174.632812 L 124.289062 163.664062 C 123.417969 163.371094 122.945312 162.429688 123.234375 161.554688 C 123.523438 160.679688 124.464844 160.207031 125.335938 160.5 L 158.339844 171.46875 C 159.210938 171.757812 159.683594 172.699219 159.394531 173.574219 Z M 159.394531 190.027344 C 159.164062 190.726562 158.515625 191.171875 157.816406 191.171875 C 157.644531 191.171875 157.464844 191.144531 157.292969 191.085938 L 124.289062 180.117188 C 123.417969 179.828125 122.945312 178.882812 123.234375 178.007812 C 123.523438 177.136719 124.464844 176.664062 125.335938 176.953125 L 158.339844 187.921875 C 159.210938 188.210938 159.683594 189.15625 159.394531 190.027344 Z M 27.863281 208.996094 L 110.105469 208.996094 L 171.730469 229.476562 C 171.902344 229.535156 172.078125 229.5625 172.253906 229.5625 C 172.433594 229.5625 172.609375 229.535156 172.78125 229.476562 L 234.660156 208.910156 C 235.34375 208.683594 235.800781 208.046875 235.800781 207.328125 L 235.800781 34.5625 C 235.800781 34.027344 235.542969 33.523438 235.113281 33.210938 C 234.679688 32.898438 234.121094 32.8125 233.613281 32.980469 L 172.253906 53.375 L 110.898438 32.980469 C 110.726562 32.925781 110.550781 32.894531 110.375 32.894531 L 27.863281 32.894531 C 26.945312 32.894531 26.199219 33.640625 26.199219 34.5625 L 26.199219 207.328125 C 26.199219 208.25 26.945312 208.996094 27.863281 208.996094 Z M 29.527344 166.8125 C 35.910156 159.324219 42.289062 155.519531 48.492188 155.519531 C 56.214844 155.519531 61.90625 161.273438 67.929688 167.363281 C 74.171875 173.675781 80.625 180.203125 89.746094 180.203125 C 96.105469 180.203125 102.46875 176.949219 108.710938 170.53125 L 108.710938 205.664062 L 29.527344 205.664062 Z M 170.589844 225.585938 L 112.035156 206.125 L 112.035156 132.875 C 120.789062 132.398438 126.789062 126.171875 132.597656 120.140625 C 138.363281 114.15625 143.804688 108.5 151.6875 108.214844 C 159.75 107.921875 165.058594 113.488281 170.589844 119.53125 Z M 170.589844 114.644531 C 165.464844 109.277344 159.8125 104.582031 151.566406 104.882812 C 142.34375 105.21875 136.171875 111.628906 130.203125 117.824219 C 124.664062 123.578125 119.390625 129.03125 112.035156 129.53125 L 112.035156 36.871094 L 170.589844 56.332031 Z M 173.917969 225.585938 L 173.917969 123.121094 C 178.890625 128.328125 184.363281 132.910156 192.199219 132.910156 C 192.445312 132.910156 192.691406 132.902344 192.941406 132.894531 C 202.167969 132.558594 208.335938 126.148438 214.304688 119.953125 C 219.847656 114.199219 225.109375 108.746094 232.472656 108.246094 L 232.472656 206.125 Z M 232.472656 104.902344 C 223.714844 105.378906 217.71875 111.605469 211.914062 117.636719 C 206.148438 123.621094 200.703125 129.277344 192.824219 129.5625 C 184.75 129.855469 179.453125 124.28125 173.917969 118.234375 L 173.917969 56.332031 L 232.472656 36.871094 Z M 108.710938 36.230469 L 108.710938 165.574219 C 102.324219 173.0625 95.949219 176.867188 89.746094 176.867188 C 82.011719 176.867188 76.320312 171.113281 70.292969 165.019531 C 64.054688 158.710938 57.601562 152.1875 48.492188 152.1875 C 42.132812 152.1875 35.769531 155.4375 29.527344 161.859375 L 29.527344 36.230469 Z M 185.117188 76.222656 C 184.828125 75.347656 185.296875 74.40625 186.171875 74.117188 L 219.175781 63.144531 C 220.046875 62.855469 220.988281 63.328125 221.277344 64.203125 C 221.566406 65.078125 221.09375 66.019531 220.222656 66.308594 L 187.21875 77.277344 C 187.042969 77.335938 186.867188 77.363281 186.695312 77.363281 C 185.996094 77.363281 185.347656 76.921875 185.117188 76.222656 Z M 185.117188 92.675781 C 184.828125 91.800781 185.296875 90.859375 186.171875 90.570312 L 219.175781 79.601562 C 220.046875 79.3125 220.988281 79.785156 221.277344 80.65625 C 221.566406 81.53125 221.09375 82.472656 220.222656 82.765625 L 187.21875 93.734375 C 187.042969 93.792969 186.867188 93.820312 186.695312 93.820312 C 185.996094 93.820312 185.347656 93.375 185.117188 92.675781 Z M 221.277344 145.101562 C 221.566406 145.976562 221.09375 146.917969 220.222656 147.207031 L 187.21875 158.175781 C 187.042969 158.234375 186.867188 158.261719 186.695312 158.261719 C 185.996094 158.261719 185.347656 157.820312 185.117188 157.121094 C 184.828125 156.246094 185.296875 155.304688 186.171875 155.015625 L 219.175781 144.042969 C 220.046875 143.753906 220.988281 144.226562 221.277344 145.101562 Z M 221.277344 161.554688 C 221.566406 162.429688 221.09375 163.371094 220.222656 163.664062 L 187.21875 174.632812 C 187.042969 174.691406 186.867188 174.71875 186.695312 174.71875 C 185.996094 174.71875 185.347656 174.273438 185.117188 173.574219 C 184.828125 172.699219 185.296875 171.757812 186.171875 171.46875 L 219.175781 160.5 C 220.046875 160.210938 220.988281 160.683594 221.277344 161.554688 Z M 221.277344 178.007812 C 221.566406 178.882812 221.09375 179.828125 220.222656 180.117188 L 187.21875 191.085938 C 187.042969 191.144531 186.867188 191.171875 186.695312 191.171875 C 185.996094 191.171875 185.347656 190.726562 185.117188 190.027344 C 184.828125 189.15625 185.296875 188.210938 186.171875 187.921875 L 219.175781 176.953125 C 220.046875 176.664062 220.988281 177.136719 221.277344 178.007812 Z M 54.679688 93.816406 C 59.007812 93.816406 62.53125 90.300781 62.53125 85.980469 C 62.53125 81.660156 59.007812 78.144531 54.679688 78.144531 C 50.347656 78.144531 46.828125 81.660156 46.828125 85.980469 C 46.828125 90.300781 50.347656 93.816406 54.679688 93.816406 Z M 54.679688 81.476562 C 57.175781 81.476562 59.203125 83.496094 59.203125 85.980469 C 59.203125 88.464844 57.175781 90.484375 54.679688 90.484375 C 52.183594 90.484375 50.152344 88.464844 50.152344 85.980469 C 50.152344 83.496094 52.183594 81.476562 54.679688 81.476562 Z M 69.117188 84.316406 L 89.746094 84.316406 C 90.664062 84.316406 91.410156 85.0625 91.410156 85.980469 C 91.410156 86.902344 90.664062 87.648438 89.746094 87.648438 L 69.117188 87.648438 C 68.199219 87.648438 67.453125 86.902344 67.453125 85.980469 C 67.453125 85.0625 68.199219 84.316406 69.117188 84.316406 Z M 54.679688 118.5 C 59.007812 118.5 62.53125 114.984375 62.53125 110.660156 C 62.53125 106.339844 59.007812 102.824219 54.679688 102.824219 C 50.347656 102.824219 46.828125 106.339844 46.828125 110.660156 C 46.828125 114.984375 50.347656 118.5 54.679688 118.5 Z M 54.679688 106.160156 C 57.175781 106.160156 59.203125 108.179688 59.203125 110.664062 C 59.203125 113.144531 57.175781 115.164062 54.679688 115.164062 C 52.183594 115.164062 50.152344 113.144531 50.152344 110.664062 C 50.152344 108.179688 52.183594 106.160156 54.679688 106.160156 Z M 91.410156 110.664062 C 91.410156 111.582031 90.664062 112.328125 89.746094 112.328125 L 69.117188 112.328125 C 68.199219 112.328125 67.453125 111.582031 67.453125 110.664062 C 67.453125 109.742188 68.199219 108.996094 69.117188 108.996094 L 89.746094 108.996094 C 90.664062 108.996094 91.410156 109.742188 91.410156 110.664062 Z M 54.679688 143.179688 C 59.007812 143.179688 62.53125 139.664062 62.53125 135.34375 C 62.53125 131.023438 59.007812 127.507812 54.679688 127.507812 C 50.347656 127.507812 46.828125 131.023438 46.828125 135.34375 C 46.828125 139.664062 50.347656 143.179688 54.679688 143.179688 Z M 54.679688 130.839844 C 57.175781 130.839844 59.203125 132.859375 59.203125 135.34375 C 59.203125 137.828125 57.175781 139.847656 54.679688 139.847656 C 52.183594 139.847656 50.152344 137.828125 50.152344 135.34375 C 50.15625 132.859375 52.183594 130.839844 54.679688 130.839844 Z M 91.410156 135.34375 C 91.410156 136.261719 90.664062 137.007812 89.746094 137.007812 L 69.117188 137.007812 C 68.199219 137.007812 67.453125 136.261719 67.453125 135.34375 C 67.453125 134.421875 68.199219 133.675781 69.117188 133.675781 L 89.746094 133.675781 C 90.664062 133.675781 91.410156 134.421875 91.410156 135.34375 Z M 91.410156 135.34375 " fill-opacity="1" fill-rule="nonzero"/></g><path fill="#c3ddda" d="M 172.253906 118.878906 C 154.285156 155.085938 157.335938 191.449219 172.253906 227.894531 L 234.136719 207.328125 L 234.136719 106.550781 C 215.113281 88.507812 192.542969 92.933594 172.253906 118.878906 Z M 172.253906 118.878906 " fill-opacity="1" fill-rule="nonzero"/><path fill="#1498b7" d="M 234.136719 34.5625 L 234.136719 106.550781 C 216.523438 106.007812 210.316406 130.59375 192.882812 131.230469 C 183.84375 131.558594 178.046875 125.21875 172.253906 118.878906 C 159.074219 95.621094 156.589844 73.992188 172.253906 55.128906 Z M 234.136719 34.5625 " fill-opacity="1" fill-rule="nonzero"/><path fill="#d6eae8" d="M 110.375 131.230469 L 92.914062 163.683594 L 110.375 207.328125 L 172.253906 227.894531 L 172.253906 118.878906 C 152.679688 76.390625 131.898438 87.253906 110.375 131.230469 Z M 110.375 131.230469 " fill-opacity="1" fill-rule="nonzero"/><path fill="#1ea6bc" d="M 172.253906 55.128906 L 172.253906 118.878906 C 166.460938 112.550781 160.664062 106.222656 151.628906 106.550781 C 134.195312 107.183594 127.984375 131.765625 110.375 131.230469 C 95.597656 97.308594 91.519531 64.617188 110.375 34.5625 Z M 172.253906 55.128906 " fill-opacity="1" fill-rule="nonzero"/><path fill="#1ea6bc" d="M 27.863281 166.191406 L 27.863281 207.328125 L 110.375 207.328125 L 110.375 166.191406 C 73.886719 121.75 41.996094 100.054688 27.863281 166.191406 Z M 27.863281 166.191406 " fill-opacity="1" fill-rule="nonzero"/><path fill="#e7f2f1" d="M 110.375 131.230469 L 110.375 166.191406 C 103.5 174.421875 96.621094 178.535156 89.746094 178.535156 C 72.898438 178.535156 65.324219 153.855469 48.492188 153.855469 C 41.617188 153.855469 34.738281 157.96875 27.863281 166.191406 L 27.863281 34.5625 L 110.375 34.5625 Z M 110.375 131.230469 " fill-opacity="1" fill-rule="nonzero"/><path fill="#ffc05a" d="M 50.554688 51.015625 L 87.683594 51.015625 L 87.683594 67.472656 L 50.554688 67.472656 Z M 50.554688 51.015625 " fill-opacity="1" fill-rule="nonzero"/><path fill="#ffc05a" d="M 54.679688 79.8125 C 58.097656 79.8125 60.867188 82.574219 60.867188 85.980469 C 60.867188 89.386719 58.097656 92.152344 54.679688 92.152344 C 51.261719 92.152344 48.492188 89.386719 48.492188 85.980469 C 48.492188 82.574219 51.261719 79.8125 54.679688 79.8125 Z M 54.679688 79.8125 " fill-opacity="1" fill-rule="nonzero"/><path fill="#ffc05a" d="M 60.867188 110.664062 C 60.867188 111.066406 60.828125 111.46875 60.75 111.867188 C 60.667969 112.265625 60.550781 112.648438 60.394531 113.023438 C 60.242188 113.398438 60.050781 113.753906 59.824219 114.089844 C 59.597656 114.429688 59.34375 114.738281 59.054688 115.027344 C 58.769531 115.3125 58.453125 115.570312 58.117188 115.792969 C 57.78125 116.019531 57.421875 116.210938 57.046875 116.363281 C 56.671875 116.519531 56.285156 116.636719 55.886719 116.714844 C 55.488281 116.792969 55.085938 116.832031 54.679688 116.832031 C 54.273438 116.832031 53.871094 116.792969 53.472656 116.714844 C 53.074219 116.636719 52.6875 116.519531 52.3125 116.363281 C 51.9375 116.210938 51.578125 116.019531 51.242188 115.792969 C 50.902344 115.570312 50.589844 115.3125 50.304688 115.027344 C 50.015625 114.738281 49.757812 114.429688 49.535156 114.089844 C 49.308594 113.753906 49.117188 113.398438 48.960938 113.023438 C 48.804688 112.648438 48.6875 112.265625 48.609375 111.867188 C 48.53125 111.46875 48.492188 111.066406 48.492188 110.664062 C 48.492188 110.257812 48.53125 109.855469 48.609375 109.460938 C 48.6875 109.0625 48.804688 108.675781 48.960938 108.300781 C 49.117188 107.925781 49.308594 107.570312 49.535156 107.234375 C 49.757812 106.898438 50.015625 106.585938 50.304688 106.300781 C 50.589844 106.011719 50.902344 105.757812 51.242188 105.53125 C 51.578125 105.308594 51.9375 105.117188 52.3125 104.960938 C 52.6875 104.808594 53.074219 104.691406 53.472656 104.609375 C 53.871094 104.53125 54.273438 104.492188 54.679688 104.492188 C 55.085938 104.492188 55.488281 104.53125 55.886719 104.609375 C 56.285156 104.691406 56.671875 104.808594 57.046875 104.960938 C 57.421875 105.117188 57.78125 105.308594 58.117188 105.53125 C 58.453125 105.757812 58.769531 106.011719 59.054688 106.300781 C 59.34375 106.585938 59.597656 106.898438 59.824219 107.234375 C 60.050781 107.570312 60.242188 107.925781 60.394531 108.300781 C 60.550781 108.675781 60.667969 109.0625 60.75 109.460938 C 60.828125 109.855469 60.867188 110.257812 60.867188 110.664062 Z M 60.867188 110.664062 " fill-opacity="1" fill-rule="nonzero"/><path fill="#ffc05a" d="M 60.867188 135.34375 C 60.867188 135.746094 60.828125 136.148438 60.75 136.546875 C 60.667969 136.945312 60.550781 137.328125 60.394531 137.703125 C 60.242188 138.078125 60.050781 138.433594 59.824219 138.769531 C 59.597656 139.105469 59.34375 139.417969 59.054688 139.707031 C 58.769531 139.992188 58.453125 140.246094 58.117188 140.472656 C 57.78125 140.699219 57.421875 140.886719 57.046875 141.042969 C 56.671875 141.199219 56.285156 141.316406 55.886719 141.394531 C 55.488281 141.472656 55.085938 141.511719 54.679688 141.511719 C 54.273438 141.511719 53.871094 141.472656 53.472656 141.394531 C 53.074219 141.316406 52.6875 141.199219 52.3125 141.042969 C 51.9375 140.886719 51.578125 140.699219 51.242188 140.472656 C 50.902344 140.246094 50.589844 139.992188 50.304688 139.707031 C 50.015625 139.417969 49.757812 139.105469 49.535156 138.769531 C 49.308594 138.433594 49.117188 138.078125 48.960938 137.703125 C 48.804688 137.328125 48.6875 136.945312 48.609375 136.546875 C 48.53125 136.148438 48.492188 135.746094 48.492188 135.34375 C 48.492188 134.9375 48.53125 134.535156 48.609375 134.136719 C 48.6875 133.742188 48.804688 133.355469 48.960938 132.980469 C 49.117188 132.605469 49.308594 132.25 49.535156 131.914062 C 49.757812 131.578125 50.015625 131.265625 50.304688 130.980469 C 50.589844 130.691406 50.902344 130.4375 51.242188 130.210938 C 51.578125 129.984375 51.9375 129.796875 52.3125 129.640625 C 52.6875 129.484375 53.074219 129.367188 53.472656 129.289062 C 53.871094 129.210938 54.273438 129.171875 54.679688 129.171875 C 55.085938 129.171875 55.488281 129.210938 55.886719 129.289062 C 56.285156 129.367188 56.671875 129.484375 57.046875 129.640625 C 57.421875 129.796875 57.78125 129.984375 58.117188 130.210938 C 58.453125 130.4375 58.769531 130.691406 59.054688 130.980469 C 59.34375 131.265625 59.597656 131.578125 59.824219 131.914062 C 60.050781 132.25 60.242188 132.605469 60.394531 132.980469 C 60.550781 133.355469 60.667969 133.742188 60.75 134.136719 C 60.828125 134.535156 60.867188 134.9375 60.867188 135.34375 Z M 60.867188 135.34375 " fill-opacity="1" fill-rule="nonzero"/><g clip-path="url(#2af6b5a79f)"><path fill="#3a322b" d="M 50.554688 69.136719 L 87.683594 69.136719 C 88.601562 69.136719 89.347656 68.390625 89.347656 67.46875 L 89.347656 51.015625 C 89.347656 50.097656 88.601562 49.351562 87.683594 49.351562 L 50.554688 49.351562 C 49.636719 49.351562 48.890625 50.097656 48.890625 51.015625 L 48.890625 67.46875 C 48.890625 68.390625 49.636719 69.136719 50.554688 69.136719 Z M 52.21875 52.683594 L 86.019531 52.683594 L 86.019531 65.804688 L 52.21875 65.804688 Z M 123.234375 64.203125 C 123.523438 63.328125 124.464844 62.855469 125.335938 63.144531 L 158.339844 74.117188 C 159.210938 74.40625 159.683594 75.347656 159.394531 76.222656 C 159.164062 76.921875 158.515625 77.363281 157.816406 77.363281 C 157.644531 77.363281 157.464844 77.335938 157.292969 77.28125 L 124.289062 66.308594 C 123.417969 66.019531 122.945312 65.078125 123.234375 64.203125 Z M 159.394531 92.675781 C 159.164062 93.375 158.515625 93.820312 157.816406 93.820312 C 157.644531 93.820312 157.464844 93.792969 157.292969 93.734375 L 124.289062 82.765625 C 123.417969 82.476562 122.945312 81.53125 123.234375 80.65625 C 123.523438 79.785156 124.464844 79.3125 125.335938 79.601562 L 158.339844 90.570312 C 159.210938 90.859375 159.683594 91.800781 159.394531 92.675781 Z M 159.394531 157.121094 C 159.164062 157.820312 158.515625 158.261719 157.816406 158.261719 C 157.644531 158.261719 157.464844 158.234375 157.292969 158.175781 L 124.289062 147.207031 C 123.417969 146.917969 122.945312 145.976562 123.234375 145.101562 C 123.523438 144.226562 124.464844 143.753906 125.335938 144.042969 L 158.339844 155.015625 C 159.210938 155.304688 159.683594 156.246094 159.394531 157.121094 Z M 159.394531 173.574219 C 159.164062 174.273438 158.515625 174.714844 157.816406 174.714844 C 157.644531 174.714844 157.464844 174.6875 157.292969 174.632812 L 124.289062 163.664062 C 123.417969 163.371094 122.945312 162.429688 123.234375 161.554688 C 123.523438 160.679688 124.464844 160.207031 125.335938 160.5 L 158.339844 171.46875 C 159.210938 171.757812 159.683594 172.699219 159.394531 173.574219 Z M 159.394531 190.027344 C 159.164062 190.726562 158.515625 191.171875 157.816406 191.171875 C 157.644531 191.171875 157.464844 191.144531 157.292969 191.085938 L 124.289062 180.117188 C 123.417969 179.828125 122.945312 178.882812 123.234375 178.007812 C 123.523438 177.136719 124.464844 176.664062 125.335938 176.953125 L 158.339844 187.921875 C 159.210938 188.210938 159.683594 189.15625 159.394531 190.027344 Z M 27.863281 208.996094 L 110.105469 208.996094 L 171.730469 229.476562 C 171.902344 229.535156 172.078125 229.5625 172.253906 229.5625 C 172.433594 229.5625 172.609375 229.535156 172.78125 229.476562 L 234.660156 208.910156 C 235.34375 208.683594 235.800781 208.046875 235.800781 207.328125 L 235.800781 34.5625 C 235.800781 34.027344 235.542969 33.523438 235.113281 33.210938 C 234.679688 32.898438 234.121094 32.8125 233.613281 32.980469 L 172.253906 53.375 L 110.898438 32.980469 C 110.726562 32.925781 110.550781 32.894531 110.375 32.894531 L 27.863281 32.894531 C 26.945312 32.894531 26.199219 33.640625 26.199219 34.5625 L 26.199219 207.328125 C 26.199219 208.25 26.945312 208.996094 27.863281 208.996094 Z M 29.527344 166.8125 C 35.910156 159.324219 42.289062 155.519531 48.492188 155.519531 C 56.214844 155.519531 61.90625 161.273438 67.929688 167.363281 C 74.171875 173.675781 80.625 180.203125 89.746094 180.203125 C 96.105469 180.203125 102.46875 176.949219 108.710938 170.53125 L 108.710938 205.664062 L 29.527344 205.664062 Z M 170.589844 225.585938 L 112.035156 206.125 L 112.035156 132.875 C 120.789062 132.398438 126.789062 126.171875 132.597656 120.140625 C 138.363281 114.15625 143.804688 108.5 151.6875 108.214844 C 159.75 107.921875 165.058594 113.488281 170.589844 119.53125 Z M 170.589844 114.644531 C 165.464844 109.277344 159.8125 104.582031 151.566406 104.882812 C 142.34375 105.21875 136.171875 111.628906 130.203125 117.824219 C 124.664062 123.578125 119.390625 129.03125 112.035156 129.53125 L 112.035156 36.871094 L 170.589844 56.332031 Z M 173.917969 225.585938 L 173.917969 123.121094 C 178.890625 128.328125 184.363281 132.910156 192.199219 132.910156 C 192.445312 132.910156 192.691406 132.902344 192.941406 132.894531 C 202.167969 132.558594 208.335938 126.148438 214.304688 119.953125 C 219.847656 114.199219 225.109375 108.746094 232.472656 108.246094 L 232.472656 206.125 Z M 232.472656 104.902344 C 223.714844 105.378906 217.71875 111.605469 211.914062 117.636719 C 206.148438 123.621094 200.703125 129.277344 192.824219 129.5625 C 184.75 129.855469 179.453125 124.28125 173.917969 118.234375 L 173.917969 56.332031 L 232.472656 36.871094 Z M 108.710938 36.230469 L 108.710938 165.574219 C 102.324219 173.0625 95.949219 176.867188 89.746094 176.867188 C 82.011719 176.867188 76.320312 171.113281 70.292969 165.019531 C 64.054688 158.710938 57.601562 152.1875 48.492188 152.1875 C 42.132812 152.1875 35.769531 155.4375 29.527344 161.859375 L 29.527344 36.230469 Z M 185.117188 76.222656 C 184.828125 75.347656 185.296875 74.40625 186.171875 74.117188 L 219.175781 63.144531 C 220.046875 62.855469 220.988281 63.328125 221.277344 64.203125 C 221.566406 65.078125 221.09375 66.019531 220.222656 66.308594 L 187.21875 77.277344 C 187.042969 77.335938 186.867188 77.363281 186.695312 77.363281 C 185.996094 77.363281 185.347656 76.921875 185.117188 76.222656 Z M 185.117188 92.675781 C 184.828125 91.800781 185.296875 90.859375 186.171875 90.570312 L 219.175781 79.601562 C 220.046875 79.3125 220.988281 79.785156 221.277344 80.65625 C 221.566406 81.53125 221.09375 82.472656 220.222656 82.765625 L 187.21875 93.734375 C 187.042969 93.792969 186.867188 93.820312 186.695312 93.820312 C 185.996094 93.820312 185.347656 93.375 185.117188 92.675781 Z M 221.277344 145.101562 C 221.566406 145.976562 221.09375 146.917969 220.222656 147.207031 L 187.21875 158.175781 C 187.042969 158.234375 186.867188 158.261719 186.695312 158.261719 C 185.996094 158.261719 185.347656 157.820312 185.117188 157.121094 C 184.828125 156.246094 185.296875 155.304688 186.171875 155.015625 L 219.175781 144.042969 C 220.046875 143.753906 220.988281 144.226562 221.277344 145.101562 Z M 221.277344 161.554688 C 221.566406 162.429688 221.09375 163.371094 220.222656 163.664062 L 187.21875 174.632812 C 187.042969 174.691406 186.867188 174.71875 186.695312 174.71875 C 185.996094 174.71875 185.347656 174.273438 185.117188 173.574219 C 184.828125 172.699219 185.296875 171.757812 186.171875 171.46875 L 219.175781 160.5 C 220.046875 160.210938 220.988281 160.683594 221.277344 161.554688 Z M 221.277344 178.007812 C 221.566406 178.882812 221.09375 179.828125 220.222656 180.117188 L 187.21875 191.085938 C 187.042969 191.144531 186.867188 191.171875 186.695312 191.171875 C 185.996094 191.171875 185.347656 190.726562 185.117188 190.027344 C 184.828125 189.15625 185.296875 188.210938 186.171875 187.921875 L 219.175781 176.953125 C 220.046875 176.664062 220.988281 177.136719 221.277344 178.007812 Z M 54.679688 93.816406 C 59.007812 93.816406 62.53125 90.300781 62.53125 85.980469 C 62.53125 81.660156 59.007812 78.144531 54.679688 78.144531 C 50.347656 78.144531 46.828125 81.660156 46.828125 85.980469 C 46.828125 90.300781 50.347656 93.816406 54.679688 93.816406 Z M 54.679688 81.476562 C 57.175781 81.476562 59.203125 83.496094 59.203125 85.980469 C 59.203125 88.464844 57.175781 90.484375 54.679688 90.484375 C 52.183594 90.484375 50.152344 88.464844 50.152344 85.980469 C 50.152344 83.496094 52.183594 81.476562 54.679688 81.476562 Z M 69.117188 84.316406 L 89.746094 84.316406 C 90.664062 84.316406 91.410156 85.0625 91.410156 85.980469 C 91.410156 86.902344 90.664062 87.648438 89.746094 87.648438 L 69.117188 87.648438 C 68.199219 87.648438 67.453125 86.902344 67.453125 85.980469 C 67.453125 85.0625 68.199219 84.316406 69.117188 84.316406 Z M 54.679688 118.5 C 59.007812 118.5 62.53125 114.984375 62.53125 110.660156 C 62.53125 106.339844 59.007812 102.824219 54.679688 102.824219 C 50.347656 102.824219 46.828125 106.339844 46.828125 110.660156 C 46.828125 114.984375 50.347656 118.5 54.679688 118.5 Z M 54.679688 106.160156 C 57.175781 106.160156 59.203125 108.179688 59.203125 110.664062 C 59.203125 113.144531 57.175781 115.164062 54.679688 115.164062 C 52.183594 115.164062 50.152344 113.144531 50.152344 110.664062 C 50.152344 108.179688 52.183594 106.160156 54.679688 106.160156 Z M 91.410156 110.664062 C 91.410156 111.582031 90.664062 112.328125 89.746094 112.328125 L 69.117188 112.328125 C 68.199219 112.328125 67.453125 111.582031 67.453125 110.664062 C 67.453125 109.742188 68.199219 108.996094 69.117188 108.996094 L 89.746094 108.996094 C 90.664062 108.996094 91.410156 109.742188 91.410156 110.664062 Z M 54.679688 143.179688 C 59.007812 143.179688 62.53125 139.664062 62.53125 135.34375 C 62.53125 131.023438 59.007812 127.507812 54.679688 127.507812 C 50.347656 127.507812 46.828125 131.023438 46.828125 135.34375 C 46.828125 139.664062 50.347656 143.179688 54.679688 143.179688 Z M 54.679688 130.839844 C 57.175781 130.839844 59.203125 132.859375 59.203125 135.34375 C 59.203125 137.828125 57.175781 139.847656 54.679688 139.847656 C 52.183594 139.847656 50.152344 137.828125 50.152344 135.34375 C 50.15625 132.859375 52.183594 130.839844 54.679688 130.839844 Z M 91.410156 135.34375 C 91.410156 136.261719 90.664062 137.007812 89.746094 137.007812 L 69.117188 137.007812 C 68.199219 137.007812 67.453125 136.261719 67.453125 135.34375 C 67.453125 134.421875 68.199219 133.675781 69.117188 133.675781 L 89.746094 133.675781 C 90.664062 133.675781 91.410156 134.421875 91.410156 135.34375 Z M 91.410156 135.34375 " fill-opacity="1" fill-rule="nonzero"/></g></svg>