<svg xmlns="http://www.w3.org/2000/svg" xmlns:xlink="http://www.w3.org/1999/xlink" width="350" zoomAndPan="magnify" viewBox="0 0 262.5 262.500001" height="350" preserveAspectRatio="xMidYMid meet" version="1.0"><defs><clipPath id="7e4f1f3f4b"><path d="M 45.769531 62 L 195 62 L 195 169 L 45.769531 169 Z M 45.769531 62 " clip-rule="nonzero"/></clipPath><clipPath id="dce214134d"><path d="M 45.769531 62 L 195 62 L 195 169 L 45.769531 169 Z M 45.769531 62 " clip-rule="nonzero"/></clipPath></defs><path fill="#ffeaf2" d="M 176.785156 164.589844 L 63.476562 164.589844 C 55.6875 164.589844 49.3125 158.226562 49.3125 150.445312 L 49.3125 79.71875 C 49.3125 71.9375 55.6875 65.570312 63.476562 65.570312 L 176.785156 65.570312 C 184.578125 65.570312 190.949219 71.9375 190.949219 79.71875 L 190.949219 150.445312 C 190.949219 158.226562 184.578125 164.589844 176.785156 164.589844 Z M 176.785156 164.589844 " fill-opacity="1" fill-rule="nonzero"/><g clip-path="url(#7e4f1f3f4b)"><path fill="#333333" d="M 176.785156 168.125 L 63.476562 168.125 C 53.5625 168.125 45.769531 160.347656 45.769531 150.445312 L 45.769531 79.71875 C 45.769531 69.816406 53.5625 62.035156 63.476562 62.035156 L 176.785156 62.035156 C 186.703125 62.035156 194.492188 69.816406 194.492188 79.71875 L 194.492188 150.445312 C 194.492188 160.347656 186.703125 168.125 176.785156 168.125 Z M 63.476562 69.109375 C 57.457031 69.109375 52.851562 73.707031 52.851562 79.71875 L 52.851562 150.445312 C 52.851562 156.457031 57.457031 161.054688 63.476562 161.054688 L 176.785156 161.054688 C 182.808594 161.054688 187.410156 156.457031 187.410156 150.445312 L 187.410156 79.71875 C 187.410156 73.707031 182.808594 69.109375 176.785156 69.109375 Z M 63.476562 69.109375 " fill-opacity="1" fill-rule="nonzero"/></g><path fill="#f5a2a2" d="M 52.851562 90.328125 L 187.410156 90.328125 L 187.410156 111.542969 L 52.851562 111.542969 Z M 52.851562 90.328125 " fill-opacity="1" fill-rule="nonzero"/><path fill="#f5a2a2" d="M 63.476562 132.761719 C 61.351562 132.761719 59.933594 131.347656 59.933594 129.226562 L 59.933594 122.152344 C 59.933594 120.03125 61.351562 118.617188 63.476562 118.617188 C 65.601562 118.617188 67.015625 120.03125 67.015625 122.152344 L 67.015625 129.226562 C 67.015625 131.347656 65.601562 132.761719 63.476562 132.761719 Z M 63.476562 132.761719 " fill-opacity="1" fill-rule="nonzero"/><path fill="#f5a2a2" d="M 77.640625 132.761719 C 75.515625 132.761719 74.097656 131.347656 74.097656 129.226562 L 74.097656 122.152344 C 74.097656 120.03125 75.515625 118.617188 77.640625 118.617188 C 79.765625 118.617188 81.179688 120.03125 81.179688 122.152344 L 81.179688 129.226562 C 81.179688 131.347656 79.765625 132.761719 77.640625 132.761719 Z M 77.640625 132.761719 " fill-opacity="1" fill-rule="nonzero"/><path fill="#f5a2a2" d="M 88.261719 132.761719 C 86.136719 132.761719 84.722656 131.347656 84.722656 129.226562 L 84.722656 122.152344 C 84.722656 120.03125 86.136719 118.617188 88.261719 118.617188 C 90.386719 118.617188 91.804688 120.03125 91.804688 122.152344 L 91.804688 129.226562 C 91.804688 131.347656 90.386719 132.761719 88.261719 132.761719 Z M 88.261719 132.761719 " fill-opacity="1" fill-rule="nonzero"/><path fill="#f5a2a2" d="M 98.886719 132.761719 C 96.761719 132.761719 95.34375 131.347656 95.34375 129.226562 L 95.34375 122.152344 C 95.34375 120.03125 96.761719 118.617188 98.886719 118.617188 C 101.011719 118.617188 102.425781 120.03125 102.425781 122.152344 L 102.425781 129.226562 C 102.425781 131.347656 101.011719 132.761719 98.886719 132.761719 Z M 98.886719 132.761719 " fill-opacity="1" fill-rule="nonzero"/><path fill="#f5a2a2" d="M 113.050781 132.761719 C 110.925781 132.761719 109.507812 131.347656 109.507812 129.226562 L 109.507812 122.152344 C 109.507812 120.03125 110.925781 118.617188 113.050781 118.617188 C 115.175781 118.617188 116.589844 120.03125 116.589844 122.152344 L 116.589844 129.226562 C 116.589844 131.347656 115.175781 132.761719 113.050781 132.761719 Z M 113.050781 132.761719 " fill-opacity="1" fill-rule="nonzero"/><path fill="#f5a2a2" d="M 130.753906 132.761719 C 128.628906 132.761719 127.214844 131.347656 127.214844 129.226562 L 127.214844 122.152344 C 127.214844 120.03125 128.628906 118.617188 130.753906 118.617188 C 132.878906 118.617188 134.296875 120.03125 134.296875 122.152344 L 134.296875 129.226562 C 134.296875 131.347656 132.878906 132.761719 130.753906 132.761719 Z M 130.753906 132.761719 " fill-opacity="1" fill-rule="nonzero"/><path fill="#f5a2a2" d="M 144.917969 132.761719 C 142.792969 132.761719 141.378906 131.347656 141.378906 129.226562 L 141.378906 122.152344 C 141.378906 120.03125 142.792969 118.617188 144.917969 118.617188 C 147.042969 118.617188 148.460938 120.03125 148.460938 122.152344 L 148.460938 129.226562 C 148.460938 131.347656 147.042969 132.761719 144.917969 132.761719 Z M 144.917969 132.761719 " fill-opacity="1" fill-rule="nonzero"/><path fill="#f5a2a2" d="M 155.542969 132.761719 C 153.417969 132.761719 152 131.347656 152 129.226562 L 152 122.152344 C 152 120.03125 153.417969 118.617188 155.542969 118.617188 C 157.664062 118.617188 159.082031 120.03125 159.082031 122.152344 L 159.082031 129.226562 C 159.082031 131.347656 157.664062 132.761719 155.542969 132.761719 Z M 155.542969 132.761719 " fill-opacity="1" fill-rule="nonzero"/><path fill="#f5a2a2" d="M 166.164062 132.761719 C 164.039062 132.761719 162.625 131.347656 162.625 129.226562 L 162.625 122.152344 C 162.625 120.03125 164.039062 118.617188 166.164062 118.617188 C 168.289062 118.617188 169.707031 120.03125 169.707031 122.152344 L 169.707031 129.226562 C 169.707031 131.347656 168.289062 132.761719 166.164062 132.761719 Z M 166.164062 132.761719 " fill-opacity="1" fill-rule="nonzero"/><path fill="#f5a2a2" d="M 176.785156 132.761719 C 174.664062 132.761719 173.246094 131.347656 173.246094 129.226562 L 173.246094 122.152344 C 173.246094 120.03125 174.664062 118.617188 176.785156 118.617188 C 178.910156 118.617188 180.328125 120.03125 180.328125 122.152344 L 180.328125 129.226562 C 180.328125 131.347656 178.910156 132.761719 176.785156 132.761719 Z M 176.785156 132.761719 " fill-opacity="1" fill-rule="nonzero"/><path fill="#ffffff" d="M 205.113281 161.054688 C 205.113281 162.210938 205.058594 163.367188 204.945312 164.519531 C 204.832031 165.671875 204.660156 166.816406 204.433594 167.953125 C 204.207031 169.089844 203.925781 170.210938 203.589844 171.320312 C 203.253906 172.425781 202.863281 173.515625 202.417969 174.585938 C 201.976562 175.65625 201.480469 176.703125 200.933594 177.722656 C 200.386719 178.746094 199.792969 179.738281 199.148438 180.699219 C 198.503906 181.664062 197.8125 182.59375 197.078125 183.488281 C 196.339844 184.382812 195.5625 185.242188 194.742188 186.058594 C 193.921875 186.878906 193.066406 187.65625 192.167969 188.390625 C 191.273438 189.125 190.34375 189.8125 189.378906 190.457031 C 188.414062 191.101562 187.417969 191.695312 186.398438 192.242188 C 185.375 192.789062 184.328125 193.28125 183.253906 193.726562 C 182.183594 194.167969 181.09375 194.558594 179.984375 194.894531 C 178.875 195.230469 177.75 195.511719 176.613281 195.738281 C 175.476562 195.964844 174.328125 196.132812 173.175781 196.246094 C 172.023438 196.359375 170.863281 196.417969 169.707031 196.417969 C 168.546875 196.417969 167.386719 196.359375 166.234375 196.246094 C 165.082031 196.132812 163.933594 195.964844 162.796875 195.738281 C 161.660156 195.511719 160.535156 195.230469 159.425781 194.894531 C 158.316406 194.558594 157.226562 194.167969 156.15625 193.726562 C 155.082031 193.28125 154.035156 192.789062 153.011719 192.242188 C 151.992188 191.695312 150.996094 191.101562 150.03125 190.457031 C 149.066406 189.8125 148.136719 189.125 147.242188 188.390625 C 146.34375 187.65625 145.488281 186.878906 144.667969 186.058594 C 143.847656 185.242188 143.070312 184.382812 142.332031 183.488281 C 141.597656 182.59375 140.90625 181.664062 140.261719 180.699219 C 139.617188 179.738281 139.023438 178.746094 138.476562 177.722656 C 137.929688 176.703125 137.433594 175.65625 136.992188 174.585938 C 136.546875 173.515625 136.15625 172.425781 135.820312 171.320312 C 135.484375 170.210938 135.203125 169.089844 134.976562 167.953125 C 134.75 166.816406 134.578125 165.671875 134.464844 164.519531 C 134.351562 163.367188 134.296875 162.210938 134.296875 161.054688 C 134.296875 159.894531 134.351562 158.738281 134.464844 157.585938 C 134.578125 156.433594 134.75 155.289062 134.976562 154.15625 C 135.203125 153.019531 135.484375 151.898438 135.820312 150.789062 C 136.15625 149.679688 136.546875 148.589844 136.992188 147.519531 C 137.433594 146.449219 137.929688 145.40625 138.476562 144.382812 C 139.023438 143.363281 139.617188 142.371094 140.261719 141.40625 C 140.90625 140.445312 141.597656 139.515625 142.332031 138.621094 C 143.070312 137.722656 143.847656 136.867188 144.667969 136.046875 C 145.488281 135.230469 146.34375 134.453125 147.242188 133.71875 C 148.136719 132.984375 149.066406 132.292969 150.03125 131.648438 C 150.996094 131.007812 151.992188 130.410156 153.011719 129.867188 C 154.035156 129.320312 155.082031 128.824219 156.15625 128.382812 C 157.226562 127.9375 158.316406 127.550781 159.425781 127.214844 C 160.535156 126.875 161.660156 126.59375 162.796875 126.371094 C 163.933594 126.144531 165.082031 125.972656 166.234375 125.859375 C 167.386719 125.746094 168.546875 125.691406 169.707031 125.691406 C 170.863281 125.691406 172.023438 125.746094 173.175781 125.859375 C 174.328125 125.972656 175.476562 126.144531 176.613281 126.371094 C 177.75 126.59375 178.875 126.875 179.984375 127.214844 C 181.09375 127.550781 182.183594 127.9375 183.253906 128.382812 C 184.328125 128.824219 185.375 129.320312 186.398438 129.867188 C 187.417969 130.410156 188.414062 131.007812 189.378906 131.648438 C 190.34375 132.292969 191.273438 132.984375 192.167969 133.71875 C 193.066406 134.453125 193.921875 135.230469 194.742188 136.046875 C 195.5625 136.867188 196.339844 137.722656 197.078125 138.621094 C 197.8125 139.515625 198.503906 140.445312 199.148438 141.40625 C 199.792969 142.371094 200.386719 143.363281 200.933594 144.382812 C 201.480469 145.40625 201.976562 146.449219 202.417969 147.519531 C 202.863281 148.589844 203.253906 149.679688 203.589844 150.789062 C 203.925781 151.898438 204.207031 153.019531 204.433594 154.15625 C 204.660156 155.289062 204.832031 156.433594 204.945312 157.585938 C 205.058594 158.738281 205.113281 159.894531 205.113281 161.054688 Z M 205.113281 161.054688 " fill-opacity="1" fill-rule="nonzero"/><path fill="#333333" d="M 169.707031 199.953125 C 148.105469 199.953125 130.753906 182.625 130.753906 161.054688 C 130.753906 139.480469 148.105469 122.152344 169.707031 122.152344 C 191.304688 122.152344 208.65625 139.480469 208.65625 161.054688 C 208.65625 182.625 191.304688 199.953125 169.707031 199.953125 Z M 169.707031 129.226562 C 152 129.226562 137.835938 143.371094 137.835938 161.054688 C 137.835938 178.734375 152 192.882812 169.707031 192.882812 C 187.410156 192.882812 201.574219 178.734375 201.574219 161.054688 C 201.574219 143.371094 187.410156 129.226562 169.707031 129.226562 Z M 169.707031 129.226562 " fill-opacity="1" fill-rule="nonzero"/><path fill="#ff6591" d="M 169.707031 150.089844 C 163.332031 130.289062 122.964844 157.871094 169.707031 185.808594 C 216.445312 157.871094 176.078125 130.289062 169.707031 150.089844 Z M 169.707031 150.089844 " fill-opacity="1" fill-rule="nonzero"/><path fill="#333333" d="M 169.707031 189.34375 C 168.996094 189.34375 168.289062 189.34375 167.933594 188.992188 C 142.441406 173.785156 143.148438 158.933594 144.5625 153.628906 C 146.6875 145.847656 153.417969 140.1875 160.851562 140.1875 C 164.394531 140.1875 167.582031 141.25 169.707031 143.726562 C 172.183594 141.25 175.015625 140.1875 178.558594 140.1875 C 185.992188 140.1875 192.722656 146.199219 194.847656 153.628906 C 196.261719 159.285156 196.96875 173.785156 171.476562 188.992188 C 171.121094 189.34375 170.414062 189.34375 169.707031 189.34375 Z M 161.207031 146.910156 C 160.851562 146.910156 160.851562 146.910156 161.207031 146.910156 C 157.3125 146.910156 152.707031 150.089844 151.644531 155.042969 C 149.523438 163.175781 156.25 172.722656 170.058594 181.566406 C 183.867188 172.722656 190.597656 163.175781 188.472656 155.042969 C 187.054688 150.089844 182.453125 146.910156 178.910156 146.910156 C 176.433594 146.910156 174.308594 148.324219 173.601562 151.152344 C 173.246094 152.566406 171.828125 153.628906 170.058594 153.628906 C 168.644531 153.628906 167.226562 152.566406 166.519531 151.152344 C 165.457031 148.324219 163.683594 146.910156 161.207031 146.910156 Z M 161.207031 146.910156 " fill-opacity="1" fill-rule="nonzero"/><path fill="#ffeaf2" d="M 176.785156 164.589844 L 63.476562 164.589844 C 55.6875 164.589844 49.3125 158.226562 49.3125 150.445312 L 49.3125 79.71875 C 49.3125 71.9375 55.6875 65.570312 63.476562 65.570312 L 176.785156 65.570312 C 184.578125 65.570312 190.949219 71.9375 190.949219 79.71875 L 190.949219 150.445312 C 190.949219 158.226562 184.578125 164.589844 176.785156 164.589844 Z M 176.785156 164.589844 " fill-opacity="1" fill-rule="nonzero"/><g clip-path="url(#dce214134d)"><path fill="#333333" d="M 176.785156 168.125 L 63.476562 168.125 C 53.5625 168.125 45.769531 160.347656 45.769531 150.445312 L 45.769531 79.71875 C 45.769531 69.816406 53.5625 62.035156 63.476562 62.035156 L 176.785156 62.035156 C 186.703125 62.035156 194.492188 69.816406 194.492188 79.71875 L 194.492188 150.445312 C 194.492188 160.347656 186.703125 168.125 176.785156 168.125 Z M 63.476562 69.109375 C 57.457031 69.109375 52.851562 73.707031 52.851562 79.71875 L 52.851562 150.445312 C 52.851562 156.457031 57.457031 161.054688 63.476562 161.054688 L 176.785156 161.054688 C 182.808594 161.054688 187.410156 156.457031 187.410156 150.445312 L 187.410156 79.71875 C 187.410156 73.707031 182.808594 69.109375 176.785156 69.109375 Z M 63.476562 69.109375 " fill-opacity="1" fill-rule="nonzero"/></g><path fill="#f5a2a2" d="M 52.851562 90.328125 L 187.410156 90.328125 L 187.410156 111.542969 L 52.851562 111.542969 Z M 52.851562 90.328125 " fill-opacity="1" fill-rule="nonzero"/><path fill="#f5a2a2" d="M 63.476562 132.761719 C 61.351562 132.761719 59.933594 131.347656 59.933594 129.226562 L 59.933594 122.152344 C 59.933594 120.03125 61.351562 118.617188 63.476562 118.617188 C 65.601562 118.617188 67.015625 120.03125 67.015625 122.152344 L 67.015625 129.226562 C 67.015625 131.347656 65.601562 132.761719 63.476562 132.761719 Z M 63.476562 132.761719 " fill-opacity="1" fill-rule="nonzero"/><path fill="#f5a2a2" d="M 77.640625 132.761719 C 75.515625 132.761719 74.097656 131.347656 74.097656 129.226562 L 74.097656 122.152344 C 74.097656 120.03125 75.515625 118.617188 77.640625 118.617188 C 79.765625 118.617188 81.179688 120.03125 81.179688 122.152344 L 81.179688 129.226562 C 81.179688 131.347656 79.765625 132.761719 77.640625 132.761719 Z M 77.640625 132.761719 " fill-opacity="1" fill-rule="nonzero"/><path fill="#f5a2a2" d="M 88.261719 132.761719 C 86.136719 132.761719 84.722656 131.347656 84.722656 129.226562 L 84.722656 122.152344 C 84.722656 120.03125 86.136719 118.617188 88.261719 118.617188 C 90.386719 118.617188 91.804688 120.03125 91.804688 122.152344 L 91.804688 129.226562 C 91.804688 131.347656 90.386719 132.761719 88.261719 132.761719 Z M 88.261719 132.761719 " fill-opacity="1" fill-rule="nonzero"/><path fill="#f5a2a2" d="M 98.886719 132.761719 C 96.761719 132.761719 95.34375 131.347656 95.34375 129.226562 L 95.34375 122.152344 C 95.34375 120.03125 96.761719 118.617188 98.886719 118.617188 C 101.011719 118.617188 102.425781 120.03125 102.425781 122.152344 L 102.425781 129.226562 C 102.425781 131.347656 101.011719 132.761719 98.886719 132.761719 Z M 98.886719 132.761719 " fill-opacity="1" fill-rule="nonzero"/><path fill="#f5a2a2" d="M 113.050781 132.761719 C 110.925781 132.761719 109.507812 131.347656 109.507812 129.226562 L 109.507812 122.152344 C 109.507812 120.03125 110.925781 118.617188 113.050781 118.617188 C 115.175781 118.617188 116.589844 120.03125 116.589844 122.152344 L 116.589844 129.226562 C 116.589844 131.347656 115.175781 132.761719 113.050781 132.761719 Z M 113.050781 132.761719 " fill-opacity="1" fill-rule="nonzero"/><path fill="#f5a2a2" d="M 130.753906 132.761719 C 128.628906 132.761719 127.214844 131.347656 127.214844 129.226562 L 127.214844 122.152344 C 127.214844 120.03125 128.628906 118.617188 130.753906 118.617188 C 132.878906 118.617188 134.296875 120.03125 134.296875 122.152344 L 134.296875 129.226562 C 134.296875 131.347656 132.878906 132.761719 130.753906 132.761719 Z M 130.753906 132.761719 " fill-opacity="1" fill-rule="nonzero"/><path fill="#f5a2a2" d="M 144.917969 132.761719 C 142.792969 132.761719 141.378906 131.347656 141.378906 129.226562 L 141.378906 122.152344 C 141.378906 120.03125 142.792969 118.617188 144.917969 118.617188 C 147.042969 118.617188 148.460938 120.03125 148.460938 122.152344 L 148.460938 129.226562 C 148.460938 131.347656 147.042969 132.761719 144.917969 132.761719 Z M 144.917969 132.761719 " fill-opacity="1" fill-rule="nonzero"/><path fill="#f5a2a2" d="M 155.542969 132.761719 C 153.417969 132.761719 152 131.347656 152 129.226562 L 152 122.152344 C 152 120.03125 153.417969 118.617188 155.542969 118.617188 C 157.664062 118.617188 159.082031 120.03125 159.082031 122.152344 L 159.082031 129.226562 C 159.082031 131.347656 157.664062 132.761719 155.542969 132.761719 Z M 155.542969 132.761719 " fill-opacity="1" fill-rule="nonzero"/><path fill="#f5a2a2" d="M 166.164062 132.761719 C 164.039062 132.761719 162.625 131.347656 162.625 129.226562 L 162.625 122.152344 C 162.625 120.03125 164.039062 118.617188 166.164062 118.617188 C 168.289062 118.617188 169.707031 120.03125 169.707031 122.152344 L 169.707031 129.226562 C 169.707031 131.347656 168.289062 132.761719 166.164062 132.761719 Z M 166.164062 132.761719 " fill-opacity="1" fill-rule="nonzero"/><path fill="#f5a2a2" d="M 176.785156 132.761719 C 174.664062 132.761719 173.246094 131.347656 173.246094 129.226562 L 173.246094 122.152344 C 173.246094 120.03125 174.664062 118.617188 176.785156 118.617188 C 178.910156 118.617188 180.328125 120.03125 180.328125 122.152344 L 180.328125 129.226562 C 180.328125 131.347656 178.910156 132.761719 176.785156 132.761719 Z M 176.785156 132.761719 " fill-opacity="1" fill-rule="nonzero"/><path fill="#ffffff" d="M 205.113281 161.054688 C 205.113281 162.210938 205.058594 163.367188 204.945312 164.519531 C 204.832031 165.671875 204.660156 166.816406 204.433594 167.953125 C 204.207031 169.089844 203.925781 170.210938 203.589844 171.320312 C 203.253906 172.425781 202.863281 173.515625 202.417969 174.585938 C 201.976562 175.65625 201.480469 176.703125 200.933594 177.722656 C 200.386719 178.746094 199.792969 179.738281 199.148438 180.699219 C 198.503906 181.664062 197.8125 182.59375 197.078125 183.488281 C 196.339844 184.382812 195.5625 185.242188 194.742188 186.058594 C 193.921875 186.878906 193.066406 187.65625 192.167969 188.390625 C 191.273438 189.125 190.34375 189.8125 189.378906 190.457031 C 188.414062 191.101562 187.417969 191.695312 186.398438 192.242188 C 185.375 192.789062 184.328125 193.28125 183.253906 193.726562 C 182.183594 194.167969 181.09375 194.558594 179.984375 194.894531 C 178.875 195.230469 177.75 195.511719 176.613281 195.738281 C 175.476562 195.964844 174.328125 196.132812 173.175781 196.246094 C 172.023438 196.359375 170.863281 196.417969 169.707031 196.417969 C 168.546875 196.417969 167.386719 196.359375 166.234375 196.246094 C 165.082031 196.132812 163.933594 195.964844 162.796875 195.738281 C 161.660156 195.511719 160.535156 195.230469 159.425781 194.894531 C 158.316406 194.558594 157.226562 194.167969 156.15625 193.726562 C 155.082031 193.28125 154.035156 192.789062 153.011719 192.242188 C 151.992188 191.695312 150.996094 191.101562 150.03125 190.457031 C 149.066406 189.8125 148.136719 189.125 147.242188 188.390625 C 146.34375 187.65625 145.488281 186.878906 144.667969 186.058594 C 143.847656 185.242188 143.070312 184.382812 142.332031 183.488281 C 141.597656 182.59375 140.90625 181.664062 140.261719 180.699219 C 139.617188 179.738281 139.023438 178.746094 138.476562 177.722656 C 137.929688 176.703125 137.433594 175.65625 136.992188 174.585938 C 136.546875 173.515625 136.15625 172.425781 135.820312 171.320312 C 135.484375 170.210938 135.203125 169.089844 134.976562 167.953125 C 134.75 166.816406 134.578125 165.671875 134.464844 164.519531 C 134.351562 163.367188 134.296875 162.210938 134.296875 161.054688 C 134.296875 159.894531 134.351562 158.738281 134.464844 157.585938 C 134.578125 156.433594 134.75 155.289062 134.976562 154.15625 C 135.203125 153.019531 135.484375 151.898438 135.820312 150.789062 C 136.15625 149.679688 136.546875 148.589844 136.992188 147.519531 C 137.433594 146.449219 137.929688 145.40625 138.476562 144.382812 C 139.023438 143.363281 139.617188 142.371094 140.261719 141.40625 C 140.90625 140.445312 141.597656 139.515625 142.332031 138.621094 C 143.070312 137.722656 143.847656 136.867188 144.667969 136.046875 C 145.488281 135.230469 146.34375 134.453125 147.242188 133.71875 C 148.136719 132.984375 149.066406 132.292969 150.03125 131.648438 C 150.996094 131.007812 151.992188 130.410156 153.011719 129.867188 C 154.035156 129.320312 155.082031 128.824219 156.15625 128.382812 C 157.226562 127.9375 158.316406 127.550781 159.425781 127.214844 C 160.535156 126.875 161.660156 126.59375 162.796875 126.371094 C 163.933594 126.144531 165.082031 125.972656 166.234375 125.859375 C 167.386719 125.746094 168.546875 125.691406 169.707031 125.691406 C 170.863281 125.691406 172.023438 125.746094 173.175781 125.859375 C 174.328125 125.972656 175.476562 126.144531 176.613281 126.371094 C 177.75 126.59375 178.875 126.875 179.984375 127.214844 C 181.09375 127.550781 182.183594 127.9375 183.253906 128.382812 C 184.328125 128.824219 185.375 129.320312 186.398438 129.867188 C 187.417969 130.410156 188.414062 131.007812 189.378906 131.648438 C 190.34375 132.292969 191.273438 132.984375 192.167969 133.71875 C 193.066406 134.453125 193.921875 135.230469 194.742188 136.046875 C 195.5625 136.867188 196.339844 137.722656 197.078125 138.621094 C 197.8125 139.515625 198.503906 140.445312 199.148438 141.40625 C 199.792969 142.371094 200.386719 143.363281 200.933594 144.382812 C 201.480469 145.40625 201.976562 146.449219 202.417969 147.519531 C 202.863281 148.589844 203.253906 149.679688 203.589844 150.789062 C 203.925781 151.898438 204.207031 153.019531 204.433594 154.15625 C 204.660156 155.289062 204.832031 156.433594 204.945312 157.585938 C 205.058594 158.738281 205.113281 159.894531 205.113281 161.054688 Z M 205.113281 161.054688 " fill-opacity="1" fill-rule="nonzero"/><path fill="#333333" d="M 169.707031 199.953125 C 148.105469 199.953125 130.753906 182.625 130.753906 161.054688 C 130.753906 139.480469 148.105469 122.152344 169.707031 122.152344 C 191.304688 122.152344 208.65625 139.480469 208.65625 161.054688 C 208.65625 182.625 191.304688 199.953125 169.707031 199.953125 Z M 169.707031 129.226562 C 152 129.226562 137.835938 143.371094 137.835938 161.054688 C 137.835938 178.734375 152 192.882812 169.707031 192.882812 C 187.410156 192.882812 201.574219 178.734375 201.574219 161.054688 C 201.574219 143.371094 187.410156 129.226562 169.707031 129.226562 Z M 169.707031 129.226562 " fill-opacity="1" fill-rule="nonzero"/><path fill="#ff6591" d="M 169.707031 150.089844 C 163.332031 130.289062 122.964844 157.871094 169.707031 185.808594 C 216.445312 157.871094 176.078125 130.289062 169.707031 150.089844 Z M 169.707031 150.089844 " fill-opacity="1" fill-rule="nonzero"/><path fill="#333333" d="M 169.707031 189.34375 C 168.996094 189.34375 168.289062 189.34375 167.933594 188.992188 C 142.441406 173.785156 143.148438 158.933594 144.5625 153.628906 C 146.6875 145.847656 153.417969 140.1875 160.851562 140.1875 C 164.394531 140.1875 167.582031 141.25 169.707031 143.726562 C 172.183594 141.25 175.015625 140.1875 178.558594 140.1875 C 185.992188 140.1875 192.722656 146.199219 194.847656 153.628906 C 196.261719 159.285156 196.96875 173.785156 171.476562 188.992188 C 171.121094 189.34375 170.414062 189.34375 169.707031 189.34375 Z M 161.207031 146.910156 C 160.851562 146.910156 160.851562 146.910156 161.207031 146.910156 C 157.3125 146.910156 152.707031 150.089844 151.644531 155.042969 C 149.523438 163.175781 156.25 172.722656 170.058594 181.566406 C 183.867188 172.722656 190.597656 163.175781 188.472656 155.042969 C 187.054688 150.089844 182.453125 146.910156 178.910156 146.910156 C 176.433594 146.910156 174.308594 148.324219 173.601562 151.152344 C 173.246094 152.566406 171.828125 153.628906 170.058594 153.628906 C 168.644531 153.628906 167.226562 152.566406 166.519531 151.152344 C 165.457031 148.324219 163.683594 146.910156 161.207031 146.910156 Z M 161.207031 146.910156 " fill-opacity="1" fill-rule="nonzero"/></svg>