<svg xmlns="http://www.w3.org/2000/svg" xmlns:xlink="http://www.w3.org/1999/xlink" width="350" zoomAndPan="magnify" viewBox="0 0 262.5 262.500001" height="350" preserveAspectRatio="xMidYMid meet" version="1.0"><defs><clipPath id="72c95ce32a"><path d="M 16.855469 16.898438 L 218 16.898438 L 218 235 L 16.855469 235 Z M 16.855469 16.898438 " clip-rule="nonzero"/></clipPath><clipPath id="b499413744"><path d="M 87.910156 41 L 240.164062 41 L 240.164062 245.914062 L 87.910156 245.914062 Z M 87.910156 41 " clip-rule="nonzero"/></clipPath><clipPath id="be6b6101c7"><path d="M 115 57 L 245.171875 57 L 245.171875 245.84375 L 115 245.84375 Z M 115 57 " clip-rule="nonzero"/></clipPath><clipPath id="452175fe9e"><path d="M 16.855469 16.898438 L 218 16.898438 L 218 235 L 16.855469 235 Z M 16.855469 16.898438 " clip-rule="nonzero"/></clipPath><clipPath id="4507af1f8f"><path d="M 87.910156 41 L 240.164062 41 L 240.164062 245.914062 L 87.910156 245.914062 Z M 87.910156 41 " clip-rule="nonzero"/></clipPath><clipPath id="d33afb09eb"><path d="M 115 57 L 245.171875 57 L 245.171875 245.84375 L 115 245.84375 Z M 115 57 " clip-rule="nonzero"/></clipPath></defs><g clip-path="url(#72c95ce32a)"><path fill="#fcf44e" d="M 105.132812 234.246094 L 16.855469 82.136719 L 129.003906 16.953125 L 217.28125 169.0625 L 105.132812 234.246094 " fill-opacity="1" fill-rule="nonzero"/></g><path fill="#fd894e" d="M 113.15625 244.183594 L 61.761719 66.273438 L 186.695312 30.113281 L 238.085938 208.023438 L 113.15625 244.183594 " fill-opacity="1" fill-rule="nonzero"/><g clip-path="url(#b499413744)"><path fill="#ff9ad0" d="M 111.011719 245.914062 L 87.917969 56.910156 L 217.011719 41.101562 L 240.101562 230.105469 L 111.011719 245.914062 " fill-opacity="1" fill-rule="nonzero"/></g><g clip-path="url(#be6b6101c7)"><path fill="#de1616" d="M 115.136719 245.21875 L 115.136719 57.414062 L 245.203125 57.414062 L 245.203125 245.21875 L 115.136719 245.21875 " fill-opacity="1" fill-rule="nonzero"/></g><g clip-path="url(#452175fe9e)"><path fill="#fcf44e" d="M 105.132812 234.246094 L 16.855469 82.136719 L 129.003906 16.953125 L 217.28125 169.0625 L 105.132812 234.246094 " fill-opacity="1" fill-rule="nonzero"/></g><path fill="#fd894e" d="M 113.15625 244.183594 L 61.761719 66.273438 L 186.695312 30.113281 L 238.085938 208.023438 L 113.15625 244.183594 " fill-opacity="1" fill-rule="nonzero"/><g clip-path="url(#4507af1f8f)"><path fill="#ff9ad0" d="M 111.011719 245.914062 L 87.917969 56.910156 L 217.011719 41.101562 L 240.101562 230.105469 L 111.011719 245.914062 " fill-opacity="1" fill-rule="nonzero"/></g><g clip-path="url(#d33afb09eb)"><path fill="#de1616" d="M 115.136719 245.21875 L 115.136719 57.414062 L 245.203125 57.414062 L 245.203125 245.21875 L 115.136719 245.21875 " fill-opacity="1" fill-rule="nonzero"/></g></svg>