<svg xmlns="http://www.w3.org/2000/svg" xmlns:xlink="http://www.w3.org/1999/xlink" width="225" zoomAndPan="magnify" viewBox="0 0 168.75 168.749997" height="225" preserveAspectRatio="xMidYMid meet" version="1.0"><defs><clipPath id="4df805e382"><path d="M 16.851562 16.851562 L 151.648438 16.851562 L 151.648438 151.648438 L 16.851562 151.648438 Z M 16.851562 16.851562 " clip-rule="nonzero"/></clipPath></defs><g clip-path="url(#4df805e382)"><path fill="#000000" d="M 151.648438 84.253906 C 151.648438 121.472656 121.476562 151.652344 84.25 151.652344 C 47.023438 151.652344 16.851562 121.472656 16.851562 84.253906 C 16.851562 47.027344 47.023438 16.851562 84.25 16.851562 C 121.476562 16.851562 151.648438 47.027344 151.648438 84.253906 " fill-opacity="1" fill-rule="nonzero"/></g><path fill="#ececea" d="M 128.023438 47.835938 C 117.527344 35.375 101.820312 27.453125 84.25 27.453125 C 52.65625 27.453125 27.042969 53.058594 27.042969 84.652344 C 27.042969 107.273438 40.175781 126.816406 59.226562 136.101562 C 66.789062 139.785156 75.273438 141.855469 84.25 141.855469 C 115.84375 141.855469 141.453125 116.242188 141.453125 84.652344 C 141.453125 70.628906 136.394531 57.789062 128.023438 47.835938 " fill-opacity="1" fill-rule="nonzero"/><path fill="#6d8896" d="M 85.40625 49.976562 C 85.40625 50.292969 84.890625 50.546875 84.25 50.546875 C 83.613281 50.546875 83.09375 50.292969 83.09375 49.976562 L 83.09375 33.957031 C 83.09375 33.644531 83.613281 33.390625 84.25 33.390625 C 84.890625 33.390625 85.40625 33.644531 85.40625 33.957031 L 85.40625 49.976562 " fill-opacity="1" fill-rule="nonzero"/><path fill="#6d8896" d="M 85.40625 136.441406 C 85.40625 136.753906 84.890625 137.007812 84.25 137.007812 C 83.613281 137.007812 83.09375 136.753906 83.09375 136.441406 L 83.09375 120.417969 C 83.09375 120.105469 83.613281 119.847656 84.25 119.847656 C 84.890625 119.847656 85.40625 120.105469 85.40625 120.417969 L 85.40625 136.441406 " fill-opacity="1" fill-rule="nonzero"/><path fill="#6d8896" d="M 120 86.351562 C 119.6875 86.351562 119.433594 85.835938 119.433594 85.199219 C 119.433594 84.558594 119.6875 84.042969 120 84.042969 L 136.019531 84.042969 C 136.339844 84.042969 136.589844 84.558594 136.589844 85.199219 C 136.589844 85.835938 136.339844 86.351562 136.019531 86.351562 L 120 86.351562 " fill-opacity="1" fill-rule="nonzero"/><path fill="#ec3223" d="M 81.296875 84.78125 L 82.800781 87.507812 L 48.25 106.589844 L 44.664062 106.867188 L 46.738281 103.863281 L 81.296875 84.78125 " fill-opacity="1" fill-rule="nonzero"/><path fill="#6d8896" d="M 32.710938 86.351562 C 32.398438 86.351562 32.144531 85.835938 32.144531 85.199219 C 32.144531 84.558594 32.398438 84.042969 32.710938 84.042969 L 48.730469 84.042969 C 49.042969 84.042969 49.300781 84.558594 49.300781 85.199219 C 49.300781 85.835938 49.042969 86.351562 48.730469 86.351562 L 32.710938 86.351562 " fill-opacity="1" fill-rule="nonzero"/><path fill="#0c1a23" d="M 82.644531 82.03125 C 85.695312 82.03125 88.164062 84.507812 88.164062 87.558594 C 88.164062 90.609375 85.695312 93.082031 82.644531 93.082031 C 79.589844 93.082031 77.113281 90.609375 77.113281 87.558594 C 77.113281 84.507812 79.589844 82.03125 82.644531 82.03125 " fill-opacity="1" fill-rule="nonzero"/><path fill="#0c1a23" d="M 83.039062 83.445312 L 78.386719 87.558594 L 64.371094 71.484375 L 64.371094 66.460938 L 69.019531 67.371094 L 83.039062 83.445312 " fill-opacity="1" fill-rule="nonzero"/><path fill="#0c1a23" d="M 85.265625 87.816406 L 82.640625 83.832031 L 120.292969 59.003906 L 124.664062 58.855469 L 122.921875 62.988281 L 85.265625 87.816406 " fill-opacity="1" fill-rule="nonzero"/></svg>