<svg xmlns="http://www.w3.org/2000/svg" xmlns:xlink="http://www.w3.org/1999/xlink" width="350" zoomAndPan="magnify" viewBox="0 0 262.5 262.500001" height="350" preserveAspectRatio="xMidYMid meet" version="1.0"><defs><clipPath id="39214c21fb"><path d="M 100 42.285156 L 162 42.285156 L 162 77 L 100 77 Z M 100 42.285156 " clip-rule="nonzero"/></clipPath><clipPath id="da63ba18e3"><path d="M 21.476562 42.285156 L 240.808594 42.285156 L 240.808594 219.699219 L 21.476562 219.699219 Z M 21.476562 42.285156 " clip-rule="nonzero"/></clipPath><clipPath id="9715462f79"><path d="M 100 42.285156 L 162 42.285156 L 162 77 L 100 77 Z M 100 42.285156 " clip-rule="nonzero"/></clipPath><clipPath id="90d998cc5e"><path d="M 21.476562 42.285156 L 240.808594 42.285156 L 240.808594 219.699219 L 21.476562 219.699219 Z M 21.476562 42.285156 " clip-rule="nonzero"/></clipPath></defs><g clip-path="url(#39214c21fb)"><path fill="#e84c69" d="M 158.386719 76.648438 L 103.753906 76.648438 C 101.867188 76.648438 100.339844 68.980469 100.339844 59.527344 C 100.339844 50.074219 101.867188 42.410156 103.753906 42.410156 L 158.386719 42.410156 C 160.273438 42.410156 161.800781 50.074219 161.800781 59.527344 C 161.800781 68.980469 160.273438 76.648438 158.386719 76.648438 Z M 158.386719 76.648438 " fill-opacity="1" fill-rule="evenodd"/></g><g clip-path="url(#da63ba18e3)"><path fill="#f5607b" d="M 192.53125 219.714844 L 69.609375 219.714844 C 67.722656 219.714844 66.195312 218.1875 66.195312 216.304688 L 66.195312 132.816406 L 61.691406 137.578125 C 61.054688 138.25 60.179688 138.632812 59.257812 138.648438 C 58.324219 138.667969 57.445312 138.300781 56.792969 137.648438 L 22.804688 103.710938 C 21.472656 102.378906 21.472656 100.21875 22.804688 98.886719 L 68.453125 53.304688 C 68.851562 52.90625 69.34375 52.613281 69.882812 52.449219 L 102.769531 42.554688 C 103.738281 42.261719 104.789062 42.417969 105.636719 42.972656 C 106.480469 43.53125 107.035156 44.4375 107.148438 45.441406 L 107.921875 52.410156 C 109.234375 64.203125 119.1875 73.097656 131.070312 73.097656 C 142.953125 73.097656 152.90625 64.203125 154.21875 52.410156 L 154.992188 45.445312 C 155.105469 44.4375 155.65625 43.53125 156.503906 42.976562 C 157.347656 42.417969 158.402344 42.265625 159.371094 42.554688 L 192.257812 52.453125 C 192.796875 52.613281 193.289062 52.90625 193.6875 53.304688 L 239.332031 98.886719 C 240.667969 100.21875 240.667969 102.378906 239.332031 103.710938 L 205.347656 137.648438 C 204.703125 138.289062 203.835938 138.648438 202.929688 138.648438 C 202.914062 138.648438 202.898438 138.648438 202.882812 138.648438 C 201.960938 138.632812 201.082031 138.25 200.449219 137.578125 L 195.945312 132.816406 L 195.945312 216.304688 C 195.945312 218.1875 194.414062 219.714844 192.53125 219.714844 Z M 192.53125 219.714844 " fill-opacity="1" fill-rule="evenodd"/></g><path fill="#5c9cee" d="M 171.410156 189.789062 L 90.730469 189.789062 C 88.503906 189.789062 86.695312 187.984375 86.695312 185.761719 L 86.695312 117.28125 C 86.695312 115.054688 88.503906 113.253906 90.730469 113.253906 L 171.410156 113.253906 C 173.636719 113.253906 175.441406 115.054688 175.441406 117.28125 L 175.441406 185.761719 C 175.441406 187.984375 173.636719 189.789062 171.410156 189.789062 Z M 171.410156 189.789062 " fill-opacity="1" fill-rule="evenodd"/><path fill="#8bc34a" d="M 171.410156 189.789062 L 162.027344 189.789062 C 152.8125 183.398438 142.832031 175.9375 142.03125 175.03125 C 140.558594 173.363281 140.71875 170.816406 142.386719 169.347656 L 154.621094 158.570312 C 156.144531 157.226562 158.433594 157.226562 159.960938 158.570312 L 175.441406 172.46875 L 175.441406 185.761719 C 175.441406 187.984375 173.636719 189.789062 171.410156 189.789062 Z M 171.410156 189.789062 " fill-opacity="1" fill-rule="evenodd"/><path fill="#ffc107" d="M 147.207031 153.535156 C 140.535156 153.535156 135.105469 148.113281 135.105469 141.449219 C 135.105469 134.785156 140.535156 129.367188 147.207031 129.367188 C 153.878906 129.367188 159.308594 134.785156 159.308594 141.449219 C 159.308594 148.113281 153.878906 153.535156 147.207031 153.535156 Z M 147.207031 153.535156 " fill-opacity="1" fill-rule="evenodd"/><path fill="#98db7c" d="M 169.769531 189.789062 L 90.730469 189.789062 C 88.503906 189.789062 86.699219 187.984375 86.699219 185.761719 L 86.699219 183.445312 L 122.253906 150.601562 C 123.808594 149.140625 126.230469 149.140625 127.785156 150.601562 Z M 169.769531 189.789062 " fill-opacity="1" fill-rule="evenodd"/><g clip-path="url(#9715462f79)"><path fill="#e84c69" d="M 158.386719 76.648438 L 103.753906 76.648438 C 101.867188 76.648438 100.339844 68.980469 100.339844 59.527344 C 100.339844 50.074219 101.867188 42.410156 103.753906 42.410156 L 158.386719 42.410156 C 160.273438 42.410156 161.800781 50.074219 161.800781 59.527344 C 161.800781 68.980469 160.273438 76.648438 158.386719 76.648438 Z M 158.386719 76.648438 " fill-opacity="1" fill-rule="evenodd"/></g><g clip-path="url(#90d998cc5e)"><path fill="#f5607b" d="M 192.53125 219.714844 L 69.609375 219.714844 C 67.722656 219.714844 66.195312 218.1875 66.195312 216.304688 L 66.195312 132.816406 L 61.691406 137.578125 C 61.054688 138.25 60.179688 138.632812 59.257812 138.648438 C 58.324219 138.667969 57.445312 138.300781 56.792969 137.648438 L 22.804688 103.710938 C 21.472656 102.378906 21.472656 100.21875 22.804688 98.886719 L 68.453125 53.304688 C 68.851562 52.90625 69.34375 52.613281 69.882812 52.449219 L 102.769531 42.554688 C 103.738281 42.261719 104.789062 42.417969 105.636719 42.972656 C 106.480469 43.53125 107.035156 44.4375 107.148438 45.441406 L 107.921875 52.410156 C 109.234375 64.203125 119.1875 73.097656 131.070312 73.097656 C 142.953125 73.097656 152.90625 64.203125 154.21875 52.410156 L 154.992188 45.445312 C 155.105469 44.4375 155.65625 43.53125 156.503906 42.976562 C 157.347656 42.417969 158.402344 42.265625 159.371094 42.554688 L 192.257812 52.453125 C 192.796875 52.613281 193.289062 52.90625 193.6875 53.304688 L 239.332031 98.886719 C 240.667969 100.21875 240.667969 102.378906 239.332031 103.710938 L 205.347656 137.648438 C 204.703125 138.289062 203.835938 138.648438 202.929688 138.648438 C 202.914062 138.648438 202.898438 138.648438 202.882812 138.648438 C 201.960938 138.632812 201.082031 138.25 200.449219 137.578125 L 195.945312 132.816406 L 195.945312 216.304688 C 195.945312 218.1875 194.414062 219.714844 192.53125 219.714844 Z M 192.53125 219.714844 " fill-opacity="1" fill-rule="evenodd"/></g><path fill="#5c9cee" d="M 171.410156 189.789062 L 90.730469 189.789062 C 88.503906 189.789062 86.695312 187.984375 86.695312 185.761719 L 86.695312 117.28125 C 86.695312 115.054688 88.503906 113.253906 90.730469 113.253906 L 171.410156 113.253906 C 173.636719 113.253906 175.441406 115.054688 175.441406 117.28125 L 175.441406 185.761719 C 175.441406 187.984375 173.636719 189.789062 171.410156 189.789062 Z M 171.410156 189.789062 " fill-opacity="1" fill-rule="evenodd"/><path fill="#8bc34a" d="M 171.410156 189.789062 L 162.027344 189.789062 C 152.8125 183.398438 142.832031 175.9375 142.03125 175.03125 C 140.558594 173.363281 140.71875 170.816406 142.386719 169.347656 L 154.621094 158.570312 C 156.144531 157.226562 158.433594 157.226562 159.960938 158.570312 L 175.441406 172.46875 L 175.441406 185.761719 C 175.441406 187.984375 173.636719 189.789062 171.410156 189.789062 Z M 171.410156 189.789062 " fill-opacity="1" fill-rule="evenodd"/><path fill="#ffc107" d="M 147.207031 153.535156 C 140.535156 153.535156 135.105469 148.113281 135.105469 141.449219 C 135.105469 134.785156 140.535156 129.367188 147.207031 129.367188 C 153.878906 129.367188 159.308594 134.785156 159.308594 141.449219 C 159.308594 148.113281 153.878906 153.535156 147.207031 153.535156 Z M 147.207031 153.535156 " fill-opacity="1" fill-rule="evenodd"/><path fill="#98db7c" d="M 169.769531 189.789062 L 90.730469 189.789062 C 88.503906 189.789062 86.699219 187.984375 86.699219 185.761719 L 86.699219 183.445312 L 122.253906 150.601562 C 123.808594 149.140625 126.230469 149.140625 127.785156 150.601562 Z M 169.769531 189.789062 " fill-opacity="1" fill-rule="evenodd"/></svg>