<svg xmlns="http://www.w3.org/2000/svg" xmlns:xlink="http://www.w3.org/1999/xlink" width="350" zoomAndPan="magnify" viewBox="0 0 262.5 262.500001" height="350" preserveAspectRatio="xMidYMid meet" version="1.0"><defs><clipPath id="3753f2a587"><path d="M 26.199219 26.199219 L 235.800781 26.199219 L 235.800781 235.800781 L 26.199219 235.800781 Z M 26.199219 26.199219 " clip-rule="nonzero"/></clipPath><clipPath id="9cf48be4e6"><path d="M 26.199219 26.199219 L 235.800781 26.199219 L 235.800781 235.800781 L 26.199219 235.800781 Z M 26.199219 26.199219 " clip-rule="nonzero"/></clipPath></defs><g clip-path="url(#3753f2a587)"><path fill="#000002" d="M 160.898438 207.683594 L 160.898438 198.351562 C 160.898438 191.84375 170.722656 191.84375 170.722656 198.351562 L 170.722656 207.683594 L 185.210938 207.683594 L 185.210938 206.207031 C 185.210938 190.492188 175.511719 177.109375 161.757812 171.582031 C 144.8125 188.773438 117.1875 188.773438 100.117188 171.582031 C 86.488281 177.109375 76.667969 190.613281 76.667969 206.207031 L 76.667969 207.683594 L 91.15625 207.683594 L 91.15625 198.351562 C 91.15625 191.84375 100.980469 191.84375 100.980469 198.351562 L 100.980469 207.683594 Z M 230.890625 235.800781 L 31.113281 235.800781 C 28.410156 235.800781 26.199219 233.589844 26.199219 230.890625 L 26.199219 31.113281 C 26.199219 28.410156 28.410156 26.199219 31.113281 26.199219 L 230.890625 26.199219 C 233.589844 26.199219 235.800781 28.410156 235.800781 31.113281 L 235.800781 230.890625 C 235.800781 233.589844 233.589844 235.800781 230.890625 235.800781 Z M 36.023438 225.976562 L 225.976562 225.976562 L 225.976562 36.023438 L 36.023438 36.023438 Z M 212.59375 217.503906 L 49.285156 217.503906 C 46.582031 217.503906 44.371094 215.296875 44.371094 212.59375 L 44.371094 49.285156 C 44.371094 46.582031 46.582031 44.371094 49.285156 44.371094 L 212.59375 44.371094 C 215.296875 44.371094 217.503906 46.582031 217.503906 49.285156 L 217.503906 212.59375 C 217.503906 215.296875 215.296875 217.503906 212.59375 217.503906 Z M 54.195312 207.683594 L 66.84375 207.683594 L 66.84375 206.207031 C 66.84375 181.035156 86.734375 160.53125 111.539062 159.179688 L 111.539062 156.480469 C 103.433594 150.585938 98.15625 140.886719 98.15625 130.078125 L 98.15625 111.292969 C 93.488281 96.558594 97.171875 79.492188 107.363281 69.667969 C 124.675781 52.84375 142.359375 67.824219 155.25 67.089844 C 162.371094 66.597656 168.390625 68.195312 171.582031 73.105469 C 176.371094 80.59375 172.808594 92.015625 163.847656 111.539062 L 163.847656 130.078125 C 163.847656 140.886719 158.566406 150.585938 150.460938 156.480469 L 150.460938 159.179688 C 175.265625 160.53125 195.035156 181.035156 195.035156 206.207031 L 195.035156 207.683594 L 207.683594 207.683594 L 207.683594 54.195312 L 54.195312 54.195312 Z M 112.398438 169.003906 C 123.695312 176.492188 138.304688 176.492188 149.601562 169.003906 L 145.550781 169.003906 C 142.847656 169.003906 140.640625 166.792969 140.640625 164.09375 L 140.640625 161.511719 C 134.378906 163.476562 127.625 163.476562 121.363281 161.511719 C 121.363281 167.777344 120.257812 169.003906 113.996094 169.003906 C 113.378906 169.003906 112.890625 169.003906 112.398438 169.003906 Z M 107.976562 115.714844 L 107.976562 130.078125 C 107.976562 142.972656 118.414062 153.164062 130.9375 153.164062 C 143.464844 153.164062 154.023438 142.972656 154.023438 130.078125 L 154.023438 114.363281 C 148.621094 112.519531 143.585938 108.46875 141.746094 101.960938 C 133.394531 107.363281 128.605469 104.171875 122.835938 104.417969 C 123.082031 112.890625 117.554688 115.835938 107.976562 115.714844 Z M 106.75 105.765625 C 109.207031 105.890625 111.660156 105.890625 113.011719 105.398438 C 113.011719 103.3125 112.519531 100.117188 115.097656 97.292969 C 118.78125 93.609375 125.660156 94.472656 130.570312 95.332031 C 134.378906 95.820312 139.164062 92.507812 142.359375 87.101562 C 145.183594 82.191406 152.671875 85.261719 151.445312 90.664062 C 149.726562 97.417969 150.832031 102.328125 156.234375 104.664062 C 160.039062 96.066406 165.8125 82.316406 163.355469 78.386719 C 162.003906 76.296875 156.601562 76.910156 154.269531 76.910156 C 138.675781 76.910156 126.394531 64.878906 114.238281 76.667969 C 107.117188 83.542969 104.292969 95.207031 106.75 105.765625 Z M 106.75 105.765625 " fill-opacity="1" fill-rule="evenodd"/></g><path fill="#e3b486" d="M 130.9375 153.164062 C 143.464844 153.164062 154.023438 142.972656 154.023438 130.078125 L 154.023438 114.363281 C 148.621094 112.519531 143.585938 108.46875 141.746094 101.960938 C 133.394531 107.363281 128.605469 104.171875 122.835938 104.417969 C 123.082031 112.890625 117.554688 115.835938 107.976562 115.714844 L 107.976562 130.078125 C 107.976562 142.972656 118.414062 153.164062 130.9375 153.164062 Z M 130.9375 153.164062 " fill-opacity="1" fill-rule="evenodd"/><path fill="#6f6e73" d="M 130.570312 95.332031 C 134.378906 95.820312 139.164062 92.507812 142.359375 87.101562 C 145.183594 82.191406 152.671875 85.261719 151.445312 90.664062 C 149.726562 97.417969 150.832031 102.328125 156.234375 104.664062 C 160.039062 96.066406 165.8125 82.316406 163.355469 78.386719 C 162.003906 76.296875 156.601562 76.910156 154.269531 76.910156 C 138.675781 76.910156 126.394531 64.878906 114.238281 76.667969 C 107.117188 83.542969 104.292969 95.207031 106.75 105.765625 C 109.207031 105.890625 111.660156 105.890625 113.011719 105.398438 C 113.011719 103.3125 112.519531 100.117188 115.097656 97.292969 C 118.78125 93.609375 125.660156 94.472656 130.570312 95.332031 Z M 130.570312 95.332031 " fill-opacity="1" fill-rule="evenodd"/><path fill="#fbfbfb" d="M 171.582031 73.105469 C 176.371094 80.59375 172.808594 92.015625 163.847656 111.539062 L 163.847656 130.078125 C 163.847656 140.886719 158.566406 150.585938 150.460938 156.480469 L 150.460938 159.179688 C 175.265625 160.53125 195.035156 181.035156 195.035156 206.207031 L 195.035156 207.683594 L 207.683594 207.683594 L 207.683594 54.195312 L 54.195312 54.195312 L 54.195312 207.683594 L 66.84375 207.683594 L 66.84375 206.207031 C 66.84375 181.035156 86.734375 160.53125 111.539062 159.179688 L 111.539062 156.480469 C 103.433594 150.585938 98.15625 140.886719 98.15625 130.078125 L 98.15625 111.292969 C 93.488281 96.558594 97.171875 79.492188 107.363281 69.667969 C 124.675781 52.84375 142.359375 67.824219 155.25 67.089844 C 162.371094 66.597656 168.390625 68.195312 171.582031 73.105469 Z M 171.582031 73.105469 " fill-opacity="1" fill-rule="evenodd"/><path fill="#e3b486" d="M 140.640625 161.511719 C 134.378906 163.476562 127.625 163.476562 121.363281 161.511719 C 121.363281 167.777344 120.257812 169.003906 113.996094 169.003906 C 113.378906 169.003906 112.890625 169.003906 112.398438 169.003906 C 123.695312 176.492188 138.304688 176.492188 149.601562 169.003906 L 145.550781 169.003906 C 142.847656 169.003906 140.640625 166.792969 140.640625 164.09375 Z M 140.640625 161.511719 " fill-opacity="1" fill-rule="evenodd"/><path fill="#2e9cf5" d="M 161.757812 171.582031 C 144.8125 188.773438 117.1875 188.773438 100.117188 171.582031 C 86.488281 177.109375 76.667969 190.613281 76.667969 206.207031 L 76.667969 207.683594 L 91.15625 207.683594 L 91.15625 198.351562 C 91.15625 191.84375 100.980469 191.84375 100.980469 198.351562 L 100.980469 207.683594 L 160.898438 207.683594 L 160.898438 198.351562 C 160.898438 191.84375 170.722656 191.84375 170.722656 198.351562 L 170.722656 207.683594 L 185.210938 207.683594 L 185.210938 206.207031 C 185.210938 190.492188 175.511719 177.109375 161.757812 171.582031 Z M 161.757812 171.582031 " fill-opacity="1" fill-rule="evenodd"/><path fill="#99a4ac" d="M 217.503906 49.285156 L 217.503906 212.59375 C 217.503906 215.296875 215.296875 217.503906 212.59375 217.503906 L 49.285156 217.503906 C 46.582031 217.503906 44.371094 215.296875 44.371094 212.59375 L 44.371094 49.285156 C 44.371094 46.582031 46.582031 44.371094 49.285156 44.371094 L 212.59375 44.371094 C 215.296875 44.371094 217.503906 46.582031 217.503906 49.285156 Z M 36.023438 225.976562 L 225.976562 225.976562 L 225.976562 36.023438 L 36.023438 36.023438 Z M 36.023438 225.976562 " fill-opacity="1" fill-rule="evenodd"/><g clip-path="url(#9cf48be4e6)"><path fill="#000002" d="M 160.898438 207.683594 L 160.898438 198.351562 C 160.898438 191.84375 170.722656 191.84375 170.722656 198.351562 L 170.722656 207.683594 L 185.210938 207.683594 L 185.210938 206.207031 C 185.210938 190.492188 175.511719 177.109375 161.757812 171.582031 C 144.8125 188.773438 117.1875 188.773438 100.117188 171.582031 C 86.488281 177.109375 76.667969 190.613281 76.667969 206.207031 L 76.667969 207.683594 L 91.15625 207.683594 L 91.15625 198.351562 C 91.15625 191.84375 100.980469 191.84375 100.980469 198.351562 L 100.980469 207.683594 Z M 230.890625 235.800781 L 31.113281 235.800781 C 28.410156 235.800781 26.199219 233.589844 26.199219 230.890625 L 26.199219 31.113281 C 26.199219 28.410156 28.410156 26.199219 31.113281 26.199219 L 230.890625 26.199219 C 233.589844 26.199219 235.800781 28.410156 235.800781 31.113281 L 235.800781 230.890625 C 235.800781 233.589844 233.589844 235.800781 230.890625 235.800781 Z M 36.023438 225.976562 L 225.976562 225.976562 L 225.976562 36.023438 L 36.023438 36.023438 Z M 212.59375 217.503906 L 49.285156 217.503906 C 46.582031 217.503906 44.371094 215.296875 44.371094 212.59375 L 44.371094 49.285156 C 44.371094 46.582031 46.582031 44.371094 49.285156 44.371094 L 212.59375 44.371094 C 215.296875 44.371094 217.503906 46.582031 217.503906 49.285156 L 217.503906 212.59375 C 217.503906 215.296875 215.296875 217.503906 212.59375 217.503906 Z M 54.195312 207.683594 L 66.84375 207.683594 L 66.84375 206.207031 C 66.84375 181.035156 86.734375 160.53125 111.539062 159.179688 L 111.539062 156.480469 C 103.433594 150.585938 98.15625 140.886719 98.15625 130.078125 L 98.15625 111.292969 C 93.488281 96.558594 97.171875 79.492188 107.363281 69.667969 C 124.675781 52.84375 142.359375 67.824219 155.25 67.089844 C 162.371094 66.597656 168.390625 68.195312 171.582031 73.105469 C 176.371094 80.59375 172.808594 92.015625 163.847656 111.539062 L 163.847656 130.078125 C 163.847656 140.886719 158.566406 150.585938 150.460938 156.480469 L 150.460938 159.179688 C 175.265625 160.53125 195.035156 181.035156 195.035156 206.207031 L 195.035156 207.683594 L 207.683594 207.683594 L 207.683594 54.195312 L 54.195312 54.195312 Z M 112.398438 169.003906 C 123.695312 176.492188 138.304688 176.492188 149.601562 169.003906 L 145.550781 169.003906 C 142.847656 169.003906 140.640625 166.792969 140.640625 164.09375 L 140.640625 161.511719 C 134.378906 163.476562 127.625 163.476562 121.363281 161.511719 C 121.363281 167.777344 120.257812 169.003906 113.996094 169.003906 C 113.378906 169.003906 112.890625 169.003906 112.398438 169.003906 Z M 107.976562 115.714844 L 107.976562 130.078125 C 107.976562 142.972656 118.414062 153.164062 130.9375 153.164062 C 143.464844 153.164062 154.023438 142.972656 154.023438 130.078125 L 154.023438 114.363281 C 148.621094 112.519531 143.585938 108.46875 141.746094 101.960938 C 133.394531 107.363281 128.605469 104.171875 122.835938 104.417969 C 123.082031 112.890625 117.554688 115.835938 107.976562 115.714844 Z M 106.75 105.765625 C 109.207031 105.890625 111.660156 105.890625 113.011719 105.398438 C 113.011719 103.3125 112.519531 100.117188 115.097656 97.292969 C 118.78125 93.609375 125.660156 94.472656 130.570312 95.332031 C 134.378906 95.820312 139.164062 92.507812 142.359375 87.101562 C 145.183594 82.191406 152.671875 85.261719 151.445312 90.664062 C 149.726562 97.417969 150.832031 102.328125 156.234375 104.664062 C 160.039062 96.066406 165.8125 82.316406 163.355469 78.386719 C 162.003906 76.296875 156.601562 76.910156 154.269531 76.910156 C 138.675781 76.910156 126.394531 64.878906 114.238281 76.667969 C 107.117188 83.542969 104.292969 95.207031 106.75 105.765625 Z M 106.75 105.765625 " fill-opacity="1" fill-rule="evenodd"/></g><path fill="#e3b486" d="M 130.9375 153.164062 C 143.464844 153.164062 154.023438 142.972656 154.023438 130.078125 L 154.023438 114.363281 C 148.621094 112.519531 143.585938 108.46875 141.746094 101.960938 C 133.394531 107.363281 128.605469 104.171875 122.835938 104.417969 C 123.082031 112.890625 117.554688 115.835938 107.976562 115.714844 L 107.976562 130.078125 C 107.976562 142.972656 118.414062 153.164062 130.9375 153.164062 Z M 130.9375 153.164062 " fill-opacity="1" fill-rule="evenodd"/><path fill="#6f6e73" d="M 130.570312 95.332031 C 134.378906 95.820312 139.164062 92.507812 142.359375 87.101562 C 145.183594 82.191406 152.671875 85.261719 151.445312 90.664062 C 149.726562 97.417969 150.832031 102.328125 156.234375 104.664062 C 160.039062 96.066406 165.8125 82.316406 163.355469 78.386719 C 162.003906 76.296875 156.601562 76.910156 154.269531 76.910156 C 138.675781 76.910156 126.394531 64.878906 114.238281 76.667969 C 107.117188 83.542969 104.292969 95.207031 106.75 105.765625 C 109.207031 105.890625 111.660156 105.890625 113.011719 105.398438 C 113.011719 103.3125 112.519531 100.117188 115.097656 97.292969 C 118.78125 93.609375 125.660156 94.472656 130.570312 95.332031 Z M 130.570312 95.332031 " fill-opacity="1" fill-rule="evenodd"/><path fill="#fbfbfb" d="M 171.582031 73.105469 C 176.371094 80.59375 172.808594 92.015625 163.847656 111.539062 L 163.847656 130.078125 C 163.847656 140.886719 158.566406 150.585938 150.460938 156.480469 L 150.460938 159.179688 C 175.265625 160.53125 195.035156 181.035156 195.035156 206.207031 L 195.035156 207.683594 L 207.683594 207.683594 L 207.683594 54.195312 L 54.195312 54.195312 L 54.195312 207.683594 L 66.84375 207.683594 L 66.84375 206.207031 C 66.84375 181.035156 86.734375 160.53125 111.539062 159.179688 L 111.539062 156.480469 C 103.433594 150.585938 98.15625 140.886719 98.15625 130.078125 L 98.15625 111.292969 C 93.488281 96.558594 97.171875 79.492188 107.363281 69.667969 C 124.675781 52.84375 142.359375 67.824219 155.25 67.089844 C 162.371094 66.597656 168.390625 68.195312 171.582031 73.105469 Z M 171.582031 73.105469 " fill-opacity="1" fill-rule="evenodd"/><path fill="#e3b486" d="M 140.640625 161.511719 C 134.378906 163.476562 127.625 163.476562 121.363281 161.511719 C 121.363281 167.777344 120.257812 169.003906 113.996094 169.003906 C 113.378906 169.003906 112.890625 169.003906 112.398438 169.003906 C 123.695312 176.492188 138.304688 176.492188 149.601562 169.003906 L 145.550781 169.003906 C 142.847656 169.003906 140.640625 166.792969 140.640625 164.09375 Z M 140.640625 161.511719 " fill-opacity="1" fill-rule="evenodd"/><path fill="#2e9cf5" d="M 161.757812 171.582031 C 144.8125 188.773438 117.1875 188.773438 100.117188 171.582031 C 86.488281 177.109375 76.667969 190.613281 76.667969 206.207031 L 76.667969 207.683594 L 91.15625 207.683594 L 91.15625 198.351562 C 91.15625 191.84375 100.980469 191.84375 100.980469 198.351562 L 100.980469 207.683594 L 160.898438 207.683594 L 160.898438 198.351562 C 160.898438 191.84375 170.722656 191.84375 170.722656 198.351562 L 170.722656 207.683594 L 185.210938 207.683594 L 185.210938 206.207031 C 185.210938 190.492188 175.511719 177.109375 161.757812 171.582031 Z M 161.757812 171.582031 " fill-opacity="1" fill-rule="evenodd"/><path fill="#99a4ac" d="M 217.503906 49.285156 L 217.503906 212.59375 C 217.503906 215.296875 215.296875 217.503906 212.59375 217.503906 L 49.285156 217.503906 C 46.582031 217.503906 44.371094 215.296875 44.371094 212.59375 L 44.371094 49.285156 C 44.371094 46.582031 46.582031 44.371094 49.285156 44.371094 L 212.59375 44.371094 C 215.296875 44.371094 217.503906 46.582031 217.503906 49.285156 Z M 36.023438 225.976562 L 225.976562 225.976562 L 225.976562 36.023438 L 36.023438 36.023438 Z M 36.023438 225.976562 " fill-opacity="1" fill-rule="evenodd"/></svg>