<svg xmlns="http://www.w3.org/2000/svg" xmlns:xlink="http://www.w3.org/1999/xlink" width="350" zoomAndPan="magnify" viewBox="0 0 262.5 262.500001" height="350" preserveAspectRatio="xMidYMid meet" version="1.0"><defs><clipPath id="8a98cd087d"><path d="M 26.199219 21.546875 L 235.800781 21.546875 L 235.800781 240.132812 L 26.199219 240.132812 Z M 26.199219 21.546875 " clip-rule="nonzero"/></clipPath><clipPath id="e675ebb3f9"><path d="M 26.199219 21.546875 L 235.800781 21.546875 L 235.800781 240.132812 L 26.199219 240.132812 Z M 26.199219 21.546875 " clip-rule="nonzero"/></clipPath></defs><g clip-path="url(#8a98cd087d)"><path fill="#000000" d="M 235.289062 220.976562 C 235.550781 220.886719 235.730469 220.644531 235.726562 220.367188 C 235.71875 220.027344 235.121094 186.453125 232.707031 164.40625 C 230.664062 145.742188 228.03125 133.203125 224.042969 114.222656 C 223.265625 110.523438 222.441406 106.582031 221.554688 102.308594 C 216.183594 76.335938 194.496094 41.046875 194.277344 40.695312 C 194.25 40.648438 194.214844 40.609375 194.179688 40.574219 C 194.175781 40.574219 194.175781 40.570312 194.171875 40.566406 C 194.109375 40.511719 194.042969 40.464844 193.96875 40.4375 C 193.964844 40.433594 193.964844 40.433594 193.960938 40.433594 C 193.808594 40.371094 178.503906 34.457031 163.714844 31.839844 C 162.78125 30.492188 157.898438 23.839844 150.960938 21.632812 C 150.953125 21.628906 150.945312 21.625 150.941406 21.625 C 150.9375 21.625 150.933594 21.621094 150.929688 21.621094 C 150.925781 21.617188 150.921875 21.621094 150.917969 21.617188 C 150.875 21.605469 150.832031 21.597656 150.789062 21.59375 C 150.769531 21.59375 150.753906 21.59375 150.734375 21.59375 C 150.722656 21.59375 150.710938 21.589844 150.695312 21.589844 C 140.65625 22.210938 111.566406 21.597656 111.277344 21.589844 C 111.269531 21.589844 111.265625 21.589844 111.261719 21.589844 C 111.257812 21.589844 111.25 21.589844 111.246094 21.589844 C 111.230469 21.589844 111.21875 21.59375 111.203125 21.597656 C 111.164062 21.601562 111.125 21.605469 111.089844 21.617188 C 111.082031 21.617188 111.074219 21.617188 111.066406 21.621094 C 104.113281 23.824219 99.21875 30.488281 98.285156 31.839844 C 83.492188 34.457031 68.191406 40.371094 68.035156 40.433594 C 68.03125 40.433594 68.03125 40.4375 68.027344 40.4375 C 67.957031 40.464844 67.890625 40.507812 67.835938 40.5625 C 67.828125 40.566406 67.820312 40.574219 67.8125 40.582031 C 67.78125 40.613281 67.75 40.652344 67.722656 40.695312 C 67.503906 41.046875 45.816406 76.335938 40.445312 102.308594 C 39.558594 106.589844 38.730469 110.53125 37.953125 114.234375 C 33.96875 133.210938 31.332031 145.746094 29.292969 164.40625 C 26.878906 186.453125 26.28125 220.027344 26.273438 220.367188 C 26.269531 220.644531 26.449219 220.886719 26.710938 220.976562 L 26.199219 233.9375 C 26.195312 234.089844 26.242188 234.242188 26.339844 234.363281 C 29.570312 238.429688 38 240.089844 45.191406 240.089844 C 48.839844 240.089844 52.171875 239.664062 54.34375 238.90625 C 54.558594 238.828125 54.71875 238.644531 54.765625 238.421875 L 57.300781 225.417969 C 57.308594 225.417969 57.324219 225.417969 57.324219 225.417969 C 57.628906 225.402344 57.882812 225.179688 57.933594 224.878906 C 57.980469 224.613281 62.453125 198.082031 63.960938 181.664062 C 64.203125 179.054688 64.789062 175.617188 65.738281 171.257812 L 65.523438 236.855469 C 65.523438 237.027344 65.59375 237.195312 65.714844 237.316406 C 65.835938 237.4375 66 237.503906 66.171875 237.503906 C 109.1875 237.394531 152.808594 237.394531 195.824219 237.503906 C 195.996094 237.503906 196.160156 237.4375 196.285156 237.316406 C 196.40625 237.195312 196.472656 237.027344 196.472656 236.855469 L 196.257812 171.246094 C 197.210938 175.609375 197.796875 179.046875 198.039062 181.664062 C 199.546875 198.082031 204.019531 224.613281 204.066406 224.878906 C 204.117188 225.179688 204.371094 225.402344 204.675781 225.417969 C 204.675781 225.417969 204.691406 225.417969 204.699219 225.417969 L 207.234375 238.421875 C 207.28125 238.644531 207.441406 238.828125 207.65625 238.90625 C 209.832031 239.664062 213.160156 240.089844 216.808594 240.089844 C 224 240.089844 232.429688 238.429688 235.660156 234.363281 C 235.757812 234.242188 235.804688 234.089844 235.800781 233.9375 Z M 235.289062 220.976562 " fill-opacity="1" fill-rule="nonzero"/></g><path fill="#ffffff" d="M 162.707031 32.65625 C 162.828125 33.828125 163.46875 41.816406 159.597656 50.109375 C 155.976562 57.875 147.84375 68.03125 145.550781 70.824219 C 144.742188 69.445312 142.8125 66.652344 139.113281 63.765625 C 135.683594 61.089844 133.324219 59.34375 132.175781 58.507812 C 135.039062 56.75 144.179688 50.664062 148.425781 42.179688 C 152.492188 34.058594 151.9375 26.082031 151.550781 23.210938 C 157.664062 25.625 162.054688 31.710938 162.707031 32.65625 Z M 162.707031 32.65625 " fill-opacity="1" fill-rule="nonzero"/><path fill="#ffffff" d="M 125.871094 102.640625 L 136.128906 102.640625 L 136.128906 106.011719 L 125.871094 106.011719 Z M 125.871094 102.640625 " fill-opacity="1" fill-rule="nonzero"/><path fill="#ffffff" d="M 136.128906 101.347656 L 125.871094 101.347656 L 125.871094 63.085938 C 128.542969 61.035156 130.285156 59.761719 131 59.25 C 131.710938 59.761719 133.457031 61.035156 136.128906 63.085938 Z M 136.128906 101.347656 " fill-opacity="1" fill-rule="nonzero"/><path fill="#ffffff" d="M 131 57.707031 C 129.089844 56.566406 119.070312 50.273438 114.726562 41.601562 C 113.351562 38.859375 112.535156 36.109375 112.066406 33.578125 C 115.054688 33.636719 126.007812 33.839844 135.996094 33.839844 C 141.398438 33.839844 146.511719 33.78125 149.929688 33.605469 C 149.460938 36.125 148.640625 38.867188 147.269531 41.601562 C 142.929688 50.273438 132.910156 56.566406 131 57.707031 Z M 131 57.707031 " fill-opacity="1" fill-rule="nonzero"/><path fill="#ffffff" d="M 150.195312 22.914062 C 150.394531 24.230469 150.796875 27.824219 150.144531 32.300781 C 140.472656 32.828125 115.851562 32.363281 111.851562 32.28125 C 111.203125 27.792969 111.609375 24.191406 111.804688 22.894531 C 114.40625 22.945312 125.714844 23.160156 135.996094 23.160156 C 141.539062 23.160156 146.777344 23.097656 150.195312 22.914062 Z M 150.195312 22.914062 " fill-opacity="1" fill-rule="nonzero"/><path fill="#ffffff" d="M 110.449219 23.210938 C 110.0625 26.082031 109.503906 34.058594 113.570312 42.179688 C 117.820312 50.664062 126.960938 56.75 129.820312 58.507812 C 128.671875 59.34375 126.316406 61.089844 122.882812 63.765625 C 119.183594 66.652344 117.257812 69.445312 116.445312 70.824219 C 114.15625 68.03125 106.023438 57.875 102.398438 50.109375 C 98.53125 41.816406 99.167969 33.828125 99.289062 32.65625 C 99.945312 31.710938 104.332031 25.625 110.449219 23.210938 Z M 110.449219 23.210938 " fill-opacity="1" fill-rule="nonzero"/><path fill="#ffffff" d="M 97.941406 33.210938 C 97.765625 35.671875 97.628906 42.945312 101.226562 50.65625 C 105.519531 59.851562 115.964844 72.269531 116.070312 72.394531 C 116.191406 72.542969 116.375 72.625 116.5625 72.625 C 116.59375 72.625 116.625 72.621094 116.652344 72.617188 C 116.875 72.585938 117.0625 72.445312 117.152344 72.242188 C 117.171875 72.203125 118.824219 68.570312 123.679688 64.78125 C 123.988281 64.542969 124.289062 64.308594 124.578125 64.082031 L 124.578125 106.660156 C 124.578125 107.015625 124.867188 107.304688 125.226562 107.304688 L 136.773438 107.304688 C 137.128906 107.304688 137.417969 107.015625 137.417969 106.660156 L 137.417969 64.082031 C 137.710938 64.308594 138.007812 64.542969 138.316406 64.78125 C 143.136719 68.542969 144.820312 72.1875 144.84375 72.242188 C 144.933594 72.445312 145.121094 72.585938 145.34375 72.617188 C 145.375 72.621094 145.40625 72.625 145.433594 72.625 C 145.621094 72.625 145.804688 72.542969 145.929688 72.394531 C 146.035156 72.269531 156.480469 59.851562 160.769531 50.65625 C 164.367188 42.945312 164.234375 35.671875 164.054688 33.210938 C 176.875 35.554688 189.945312 40.300781 192.882812 41.402344 C 191.917969 43.9375 188.605469 53.84375 189.617188 68.230469 C 190.394531 79.3125 191.660156 84.066406 192.675781 87.886719 C 193.183594 89.789062 193.621094 91.433594 193.925781 93.542969 C 194.851562 99.914062 194.761719 107.933594 194.761719 108.023438 L 195.160156 230.96875 C 152.582031 230.863281 109.417969 230.863281 66.835938 230.96875 L 67.050781 165.546875 C 67.050781 165.539062 67.050781 165.53125 67.050781 165.523438 L 67.238281 108.011719 C 67.234375 107.933594 67.144531 99.914062 68.070312 93.542969 C 68.378906 91.429688 68.816406 89.789062 69.320312 87.886719 C 70.339844 84.066406 71.601562 79.3125 72.378906 68.230469 C 73.390625 53.84375 70.082031 43.9375 69.113281 41.402344 C 72.054688 40.300781 85.117188 35.554688 97.941406 33.210938 Z M 97.941406 33.210938 " fill-opacity="1" fill-rule="nonzero"/><path fill="#ffffff" d="M 53.566406 237.800781 C 47.515625 239.679688 32.011719 238.992188 27.5 233.742188 L 27.992188 221.265625 C 30.734375 221.84375 37.621094 223.289062 43.074219 224.34375 C 48.007812 225.300781 53.027344 225.441406 55.589844 225.441406 C 55.726562 225.441406 55.855469 225.441406 55.976562 225.441406 Z M 53.566406 237.800781 " fill-opacity="1" fill-rule="nonzero"/><path fill="#ffffff" d="M 62.675781 181.542969 C 61.289062 196.640625 57.382812 220.332031 56.75 224.140625 C 54.992188 224.175781 49.097656 224.195312 43.320312 223.078125 C 37.339844 221.917969 29.632812 220.292969 27.574219 219.855469 C 27.664062 215.46875 28.335938 185.011719 30.578125 164.546875 C 32.613281 145.949219 35.242188 133.4375 39.21875 114.5 C 39.996094 110.796875 40.824219 106.847656 41.710938 102.566406 C 46.496094 79.429688 64.398438 48.746094 68.132812 42.507812 C 69.257812 45.738281 72 55.171875 71.089844 68.140625 C 70.320312 79.097656 69.074219 83.789062 68.070312 87.554688 C 67.554688 89.496094 67.109375 91.171875 66.792969 93.355469 C 65.851562 99.832031 65.945312 107.949219 65.945312 108.019531 L 65.757812 165.441406 C 64.023438 172.589844 63.011719 177.855469 62.675781 181.542969 Z M 62.675781 181.542969 " fill-opacity="1" fill-rule="nonzero"/><path fill="#ffffff" d="M 66.820312 236.210938 L 66.832031 232.257812 C 109.414062 232.152344 152.582031 232.152344 195.164062 232.257812 L 195.175781 236.210938 C 152.589844 236.105469 109.40625 236.105469 66.820312 236.210938 Z M 66.820312 236.210938 " fill-opacity="1" fill-rule="nonzero"/><path fill="#ffffff" d="M 199.324219 181.542969 C 198.984375 177.851562 197.976562 172.578125 196.238281 165.429688 L 196.050781 108.03125 C 196.054688 107.949219 196.148438 99.832031 195.207031 93.355469 C 194.886719 91.171875 194.441406 89.496094 193.925781 87.554688 C 192.921875 83.789062 191.675781 79.101562 190.90625 68.140625 C 189.996094 55.167969 192.742188 45.734375 193.863281 42.507812 C 197.597656 48.738281 215.503906 79.421875 220.289062 102.566406 C 221.175781 106.847656 222 110.789062 222.78125 114.484375 C 226.757812 133.429688 229.386719 145.945312 231.421875 164.546875 C 233.664062 185.011719 234.335938 215.46875 234.425781 219.855469 C 232.367188 220.292969 224.660156 221.917969 218.679688 223.078125 C 212.910156 224.195312 207.007812 224.175781 205.25 224.140625 C 204.617188 220.328125 200.710938 196.636719 199.324219 181.542969 Z M 199.324219 181.542969 " fill-opacity="1" fill-rule="nonzero"/><path fill="#ffffff" d="M 208.433594 237.800781 L 206.023438 225.441406 C 206.144531 225.441406 206.273438 225.441406 206.410156 225.441406 C 208.972656 225.441406 213.992188 225.300781 218.925781 224.34375 C 224.378906 223.289062 231.265625 221.84375 234.007812 221.265625 L 234.5 233.742188 C 229.988281 238.992188 214.488281 239.679688 208.433594 237.800781 Z M 208.433594 237.800781 " fill-opacity="1" fill-rule="nonzero"/><path fill="#000000" d="M 127.246094 70.683594 C 127.246094 72.75 128.929688 74.433594 131 74.433594 C 133.070312 74.433594 134.753906 72.75 134.753906 70.683594 C 134.753906 68.617188 133.070312 66.9375 131 66.9375 C 128.929688 66.9375 127.246094 68.617188 127.246094 70.683594 Z M 133.460938 70.683594 C 133.460938 72.039062 132.355469 73.144531 131 73.144531 C 129.644531 73.144531 128.539062 72.039062 128.539062 70.683594 C 128.539062 69.328125 129.644531 68.226562 131 68.226562 C 132.355469 68.226562 133.460938 69.328125 133.460938 70.683594 Z M 133.460938 70.683594 " fill-opacity="1" fill-rule="nonzero"/><path fill="#000000" d="M 131 87.449219 C 128.929688 87.449219 127.246094 89.128906 127.246094 91.195312 C 127.246094 93.261719 128.929688 94.945312 131 94.945312 C 133.070312 94.945312 134.753906 93.261719 134.753906 91.195312 C 134.753906 89.128906 133.070312 87.449219 131 87.449219 Z M 131 93.652344 C 129.644531 93.652344 128.539062 92.550781 128.539062 91.195312 C 128.539062 89.839844 129.644531 88.738281 131 88.738281 C 132.355469 88.738281 133.460938 89.839844 133.460938 91.195312 C 133.460938 92.550781 132.355469 93.652344 131 93.652344 Z M 131 93.652344 " fill-opacity="1" fill-rule="nonzero"/><path fill="#000000" d="M 146.796875 119.859375 L 164.277344 125.445312 C 164.339844 125.464844 164.40625 125.472656 164.472656 125.472656 C 164.539062 125.472656 164.605469 125.464844 164.667969 125.445312 L 182.148438 119.859375 C 182.417969 119.773438 182.597656 119.523438 182.597656 119.242188 L 182.597656 83.140625 C 182.597656 82.785156 182.308594 82.496094 181.953125 82.496094 L 146.996094 82.496094 C 146.636719 82.496094 146.347656 82.785156 146.347656 83.140625 L 146.347656 119.242188 C 146.347656 119.523438 146.527344 119.773438 146.796875 119.859375 Z M 164.472656 124.152344 L 147.640625 118.773438 L 147.640625 89.273438 L 181.304688 89.273438 L 181.304688 118.773438 Z M 181.304688 83.785156 L 181.304688 87.980469 L 147.640625 87.980469 L 147.640625 83.785156 Z M 181.304688 83.785156 " fill-opacity="1" fill-rule="nonzero"/><g clip-path="url(#e675ebb3f9)"><path fill="#000000" d="M 235.289062 220.976562 C 235.550781 220.886719 235.730469 220.644531 235.726562 220.367188 C 235.71875 220.027344 235.121094 186.453125 232.707031 164.40625 C 230.664062 145.742188 228.03125 133.203125 224.042969 114.222656 C 223.265625 110.523438 222.441406 106.582031 221.554688 102.308594 C 216.183594 76.335938 194.496094 41.046875 194.277344 40.695312 C 194.25 40.648438 194.214844 40.609375 194.179688 40.574219 C 194.175781 40.574219 194.175781 40.570312 194.171875 40.566406 C 194.109375 40.511719 194.042969 40.464844 193.96875 40.4375 C 193.964844 40.433594 193.964844 40.433594 193.960938 40.433594 C 193.808594 40.371094 178.503906 34.457031 163.714844 31.839844 C 162.78125 30.492188 157.898438 23.839844 150.960938 21.632812 C 150.953125 21.628906 150.945312 21.625 150.941406 21.625 C 150.9375 21.625 150.933594 21.621094 150.929688 21.621094 C 150.925781 21.617188 150.921875 21.621094 150.917969 21.617188 C 150.875 21.605469 150.832031 21.597656 150.789062 21.59375 C 150.769531 21.59375 150.753906 21.59375 150.734375 21.59375 C 150.722656 21.59375 150.710938 21.589844 150.695312 21.589844 C 140.65625 22.210938 111.566406 21.597656 111.277344 21.589844 C 111.269531 21.589844 111.265625 21.589844 111.261719 21.589844 C 111.257812 21.589844 111.25 21.589844 111.246094 21.589844 C 111.230469 21.589844 111.21875 21.59375 111.203125 21.597656 C 111.164062 21.601562 111.125 21.605469 111.089844 21.617188 C 111.082031 21.617188 111.074219 21.617188 111.066406 21.621094 C 104.113281 23.824219 99.21875 30.488281 98.285156 31.839844 C 83.492188 34.457031 68.191406 40.371094 68.035156 40.433594 C 68.03125 40.433594 68.03125 40.4375 68.027344 40.4375 C 67.957031 40.464844 67.890625 40.507812 67.835938 40.5625 C 67.828125 40.566406 67.820312 40.574219 67.8125 40.582031 C 67.78125 40.613281 67.75 40.652344 67.722656 40.695312 C 67.503906 41.046875 45.816406 76.335938 40.445312 102.308594 C 39.558594 106.589844 38.730469 110.53125 37.953125 114.234375 C 33.96875 133.210938 31.332031 145.746094 29.292969 164.40625 C 26.878906 186.453125 26.28125 220.027344 26.273438 220.367188 C 26.269531 220.644531 26.449219 220.886719 26.710938 220.976562 L 26.199219 233.9375 C 26.195312 234.089844 26.242188 234.242188 26.339844 234.363281 C 29.570312 238.429688 38 240.089844 45.191406 240.089844 C 48.839844 240.089844 52.171875 239.664062 54.34375 238.90625 C 54.558594 238.828125 54.71875 238.644531 54.765625 238.421875 L 57.300781 225.417969 C 57.308594 225.417969 57.324219 225.417969 57.324219 225.417969 C 57.628906 225.402344 57.882812 225.179688 57.933594 224.878906 C 57.980469 224.613281 62.453125 198.082031 63.960938 181.664062 C 64.203125 179.054688 64.789062 175.617188 65.738281 171.257812 L 65.523438 236.855469 C 65.523438 237.027344 65.59375 237.195312 65.714844 237.316406 C 65.835938 237.4375 66 237.503906 66.171875 237.503906 C 109.1875 237.394531 152.808594 237.394531 195.824219 237.503906 C 195.996094 237.503906 196.160156 237.4375 196.285156 237.316406 C 196.40625 237.195312 196.472656 237.027344 196.472656 236.855469 L 196.257812 171.246094 C 197.210938 175.609375 197.796875 179.046875 198.039062 181.664062 C 199.546875 198.082031 204.019531 224.613281 204.066406 224.878906 C 204.117188 225.179688 204.371094 225.402344 204.675781 225.417969 C 204.675781 225.417969 204.691406 225.417969 204.699219 225.417969 L 207.234375 238.421875 C 207.28125 238.644531 207.441406 238.828125 207.65625 238.90625 C 209.832031 239.664062 213.160156 240.089844 216.808594 240.089844 C 224 240.089844 232.429688 238.429688 235.660156 234.363281 C 235.757812 234.242188 235.804688 234.089844 235.800781 233.9375 Z M 235.289062 220.976562 " fill-opacity="1" fill-rule="nonzero"/></g><path fill="#ffffff" d="M 162.707031 32.65625 C 162.828125 33.828125 163.46875 41.816406 159.597656 50.109375 C 155.976562 57.875 147.84375 68.03125 145.550781 70.824219 C 144.742188 69.445312 142.8125 66.652344 139.113281 63.765625 C 135.683594 61.089844 133.324219 59.34375 132.175781 58.507812 C 135.039062 56.75 144.179688 50.664062 148.425781 42.179688 C 152.492188 34.058594 151.9375 26.082031 151.550781 23.210938 C 157.664062 25.625 162.054688 31.710938 162.707031 32.65625 Z M 162.707031 32.65625 " fill-opacity="1" fill-rule="nonzero"/><path fill="#ffffff" d="M 125.871094 102.640625 L 136.128906 102.640625 L 136.128906 106.011719 L 125.871094 106.011719 Z M 125.871094 102.640625 " fill-opacity="1" fill-rule="nonzero"/><path fill="#ffffff" d="M 136.128906 101.347656 L 125.871094 101.347656 L 125.871094 63.085938 C 128.542969 61.035156 130.285156 59.761719 131 59.25 C 131.710938 59.761719 133.457031 61.035156 136.128906 63.085938 Z M 136.128906 101.347656 " fill-opacity="1" fill-rule="nonzero"/><path fill="#ffffff" d="M 131 57.707031 C 129.089844 56.566406 119.070312 50.273438 114.726562 41.601562 C 113.351562 38.859375 112.535156 36.109375 112.066406 33.578125 C 115.054688 33.636719 126.007812 33.839844 135.996094 33.839844 C 141.398438 33.839844 146.511719 33.78125 149.929688 33.605469 C 149.460938 36.125 148.640625 38.867188 147.269531 41.601562 C 142.929688 50.273438 132.910156 56.566406 131 57.707031 Z M 131 57.707031 " fill-opacity="1" fill-rule="nonzero"/><path fill="#ffffff" d="M 150.195312 22.914062 C 150.394531 24.230469 150.796875 27.824219 150.144531 32.300781 C 140.472656 32.828125 115.851562 32.363281 111.851562 32.28125 C 111.203125 27.792969 111.609375 24.191406 111.804688 22.894531 C 114.40625 22.945312 125.714844 23.160156 135.996094 23.160156 C 141.539062 23.160156 146.777344 23.097656 150.195312 22.914062 Z M 150.195312 22.914062 " fill-opacity="1" fill-rule="nonzero"/><path fill="#ffffff" d="M 110.449219 23.210938 C 110.0625 26.082031 109.503906 34.058594 113.570312 42.179688 C 117.820312 50.664062 126.960938 56.75 129.820312 58.507812 C 128.671875 59.34375 126.316406 61.089844 122.882812 63.765625 C 119.183594 66.652344 117.257812 69.445312 116.445312 70.824219 C 114.15625 68.03125 106.023438 57.875 102.398438 50.109375 C 98.53125 41.816406 99.167969 33.828125 99.289062 32.65625 C 99.945312 31.710938 104.332031 25.625 110.449219 23.210938 Z M 110.449219 23.210938 " fill-opacity="1" fill-rule="nonzero"/><path fill="#ffffff" d="M 97.941406 33.210938 C 97.765625 35.671875 97.628906 42.945312 101.226562 50.65625 C 105.519531 59.851562 115.964844 72.269531 116.070312 72.394531 C 116.191406 72.542969 116.375 72.625 116.5625 72.625 C 116.59375 72.625 116.625 72.621094 116.652344 72.617188 C 116.875 72.585938 117.0625 72.445312 117.152344 72.242188 C 117.171875 72.203125 118.824219 68.570312 123.679688 64.78125 C 123.988281 64.542969 124.289062 64.308594 124.578125 64.082031 L 124.578125 106.660156 C 124.578125 107.015625 124.867188 107.304688 125.226562 107.304688 L 136.773438 107.304688 C 137.128906 107.304688 137.417969 107.015625 137.417969 106.660156 L 137.417969 64.082031 C 137.710938 64.308594 138.007812 64.542969 138.316406 64.78125 C 143.136719 68.542969 144.820312 72.1875 144.84375 72.242188 C 144.933594 72.445312 145.121094 72.585938 145.34375 72.617188 C 145.375 72.621094 145.40625 72.625 145.433594 72.625 C 145.621094 72.625 145.804688 72.542969 145.929688 72.394531 C 146.035156 72.269531 156.480469 59.851562 160.769531 50.65625 C 164.367188 42.945312 164.234375 35.671875 164.054688 33.210938 C 176.875 35.554688 189.945312 40.300781 192.882812 41.402344 C 191.917969 43.9375 188.605469 53.84375 189.617188 68.230469 C 190.394531 79.3125 191.660156 84.066406 192.675781 87.886719 C 193.183594 89.789062 193.621094 91.433594 193.925781 93.542969 C 194.851562 99.914062 194.761719 107.933594 194.761719 108.023438 L 195.160156 230.96875 C 152.582031 230.863281 109.417969 230.863281 66.835938 230.96875 L 67.050781 165.546875 C 67.050781 165.539062 67.050781 165.53125 67.050781 165.523438 L 67.238281 108.011719 C 67.234375 107.933594 67.144531 99.914062 68.070312 93.542969 C 68.378906 91.429688 68.816406 89.789062 69.320312 87.886719 C 70.339844 84.066406 71.601562 79.3125 72.378906 68.230469 C 73.390625 53.84375 70.082031 43.9375 69.113281 41.402344 C 72.054688 40.300781 85.117188 35.554688 97.941406 33.210938 Z M 97.941406 33.210938 " fill-opacity="1" fill-rule="nonzero"/><path fill="#ffffff" d="M 53.566406 237.800781 C 47.515625 239.679688 32.011719 238.992188 27.5 233.742188 L 27.992188 221.265625 C 30.734375 221.84375 37.621094 223.289062 43.074219 224.34375 C 48.007812 225.300781 53.027344 225.441406 55.589844 225.441406 C 55.726562 225.441406 55.855469 225.441406 55.976562 225.441406 Z M 53.566406 237.800781 " fill-opacity="1" fill-rule="nonzero"/><path fill="#ffffff" d="M 62.675781 181.542969 C 61.289062 196.640625 57.382812 220.332031 56.75 224.140625 C 54.992188 224.175781 49.097656 224.195312 43.320312 223.078125 C 37.339844 221.917969 29.632812 220.292969 27.574219 219.855469 C 27.664062 215.46875 28.335938 185.011719 30.578125 164.546875 C 32.613281 145.949219 35.242188 133.4375 39.21875 114.5 C 39.996094 110.796875 40.824219 106.847656 41.710938 102.566406 C 46.496094 79.429688 64.398438 48.746094 68.132812 42.507812 C 69.257812 45.738281 72 55.171875 71.089844 68.140625 C 70.320312 79.097656 69.074219 83.789062 68.070312 87.554688 C 67.554688 89.496094 67.109375 91.171875 66.792969 93.355469 C 65.851562 99.832031 65.945312 107.949219 65.945312 108.019531 L 65.757812 165.441406 C 64.023438 172.589844 63.011719 177.855469 62.675781 181.542969 Z M 62.675781 181.542969 " fill-opacity="1" fill-rule="nonzero"/><path fill="#ffffff" d="M 66.820312 236.210938 L 66.832031 232.257812 C 109.414062 232.152344 152.582031 232.152344 195.164062 232.257812 L 195.175781 236.210938 C 152.589844 236.105469 109.40625 236.105469 66.820312 236.210938 Z M 66.820312 236.210938 " fill-opacity="1" fill-rule="nonzero"/><path fill="#ffffff" d="M 199.324219 181.542969 C 198.984375 177.851562 197.976562 172.578125 196.238281 165.429688 L 196.050781 108.03125 C 196.054688 107.949219 196.148438 99.832031 195.207031 93.355469 C 194.886719 91.171875 194.441406 89.496094 193.925781 87.554688 C 192.921875 83.789062 191.675781 79.101562 190.90625 68.140625 C 189.996094 55.167969 192.742188 45.734375 193.863281 42.507812 C 197.597656 48.738281 215.503906 79.421875 220.289062 102.566406 C 221.175781 106.847656 222 110.789062 222.78125 114.484375 C 226.757812 133.429688 229.386719 145.945312 231.421875 164.546875 C 233.664062 185.011719 234.335938 215.46875 234.425781 219.855469 C 232.367188 220.292969 224.660156 221.917969 218.679688 223.078125 C 212.910156 224.195312 207.007812 224.175781 205.25 224.140625 C 204.617188 220.328125 200.710938 196.636719 199.324219 181.542969 Z M 199.324219 181.542969 " fill-opacity="1" fill-rule="nonzero"/><path fill="#ffffff" d="M 208.433594 237.800781 L 206.023438 225.441406 C 206.144531 225.441406 206.273438 225.441406 206.410156 225.441406 C 208.972656 225.441406 213.992188 225.300781 218.925781 224.34375 C 224.378906 223.289062 231.265625 221.84375 234.007812 221.265625 L 234.5 233.742188 C 229.988281 238.992188 214.488281 239.679688 208.433594 237.800781 Z M 208.433594 237.800781 " fill-opacity="1" fill-rule="nonzero"/><path fill="#000000" d="M 127.246094 70.683594 C 127.246094 72.75 128.929688 74.433594 131 74.433594 C 133.070312 74.433594 134.753906 72.75 134.753906 70.683594 C 134.753906 68.617188 133.070312 66.9375 131 66.9375 C 128.929688 66.9375 127.246094 68.617188 127.246094 70.683594 Z M 133.460938 70.683594 C 133.460938 72.039062 132.355469 73.144531 131 73.144531 C 129.644531 73.144531 128.539062 72.039062 128.539062 70.683594 C 128.539062 69.328125 129.644531 68.226562 131 68.226562 C 132.355469 68.226562 133.460938 69.328125 133.460938 70.683594 Z M 133.460938 70.683594 " fill-opacity="1" fill-rule="nonzero"/><path fill="#000000" d="M 131 87.449219 C 128.929688 87.449219 127.246094 89.128906 127.246094 91.195312 C 127.246094 93.261719 128.929688 94.945312 131 94.945312 C 133.070312 94.945312 134.753906 93.261719 134.753906 91.195312 C 134.753906 89.128906 133.070312 87.449219 131 87.449219 Z M 131 93.652344 C 129.644531 93.652344 128.539062 92.550781 128.539062 91.195312 C 128.539062 89.839844 129.644531 88.738281 131 88.738281 C 132.355469 88.738281 133.460938 89.839844 133.460938 91.195312 C 133.460938 92.550781 132.355469 93.652344 131 93.652344 Z M 131 93.652344 " fill-opacity="1" fill-rule="nonzero"/><path fill="#000000" d="M 146.796875 119.859375 L 164.277344 125.445312 C 164.339844 125.464844 164.40625 125.472656 164.472656 125.472656 C 164.539062 125.472656 164.605469 125.464844 164.667969 125.445312 L 182.148438 119.859375 C 182.417969 119.773438 182.597656 119.523438 182.597656 119.242188 L 182.597656 83.140625 C 182.597656 82.785156 182.308594 82.496094 181.953125 82.496094 L 146.996094 82.496094 C 146.636719 82.496094 146.347656 82.785156 146.347656 83.140625 L 146.347656 119.242188 C 146.347656 119.523438 146.527344 119.773438 146.796875 119.859375 Z M 164.472656 124.152344 L 147.640625 118.773438 L 147.640625 89.273438 L 181.304688 89.273438 L 181.304688 118.773438 Z M 181.304688 83.785156 L 181.304688 87.980469 L 147.640625 87.980469 L 147.640625 83.785156 Z M 181.304688 83.785156 " fill-opacity="1" fill-rule="nonzero"/></svg>