<svg xmlns="http://www.w3.org/2000/svg" xmlns:xlink="http://www.w3.org/1999/xlink" width="350" zoomAndPan="magnify" viewBox="0 0 262.5 262.500001" height="350" preserveAspectRatio="xMidYMid meet" version="1.0"><defs><clipPath id="6ff9ebacfb"><path d="M 26.199219 58 L 235.800781 58 L 235.800781 139 L 26.199219 139 Z M 26.199219 58 " clip-rule="nonzero"/></clipPath><clipPath id="e091449211"><path d="M 61 50 L 202 50 L 202 216.679688 L 61 216.679688 Z M 61 50 " clip-rule="nonzero"/></clipPath><clipPath id="af1c1497bc"><path d="M 87 45.253906 L 175 45.253906 L 175 84 L 87 84 Z M 87 45.253906 " clip-rule="nonzero"/></clipPath></defs><path fill="#ffffff" d="M 183.785156 59.859375 C 183.785156 59.859375 212.574219 76.574219 231.945312 99.347656 C 233.515625 101.1875 233.949219 103.675781 233.082031 105.949219 C 229.675781 115.199219 218.691406 138.296875 193.796875 137.214844 C 193.851562 137.214844 170.257812 74.140625 183.785156 59.859375 Z M 78.214844 59.804688 C 78.214844 59.804688 49.425781 76.519531 30.054688 99.292969 C 28.484375 101.132812 28.050781 103.621094 28.917969 105.894531 C 32.328125 115.144531 43.3125 138.242188 68.203125 137.160156 C 68.148438 137.160156 91.742188 74.085938 78.214844 59.804688 Z M 78.214844 59.804688 " fill-opacity="1" fill-rule="nonzero"/><g clip-path="url(#6ff9ebacfb)"><path fill="#1e1313" d="M 233.191406 98.265625 C 213.820312 75.546875 184.871094 58.617188 184.597656 58.453125 C 183.949219 58.074219 183.136719 58.183594 182.597656 58.722656 C 176.589844 65.054688 176.429688 80.363281 182.164062 104.21875 C 184.164062 112.4375 186.492188 120.335938 188.441406 126.394531 C 188.222656 126.664062 188.117188 127.042969 188.117188 127.421875 C 188.171875 128.125 188.601562 128.667969 189.253906 128.882812 C 191.039062 134.238281 192.28125 137.59375 192.28125 137.699219 C 192.5 138.296875 193.09375 138.730469 193.742188 138.730469 C 194.339844 138.730469 194.933594 138.78125 195.53125 138.78125 C 220.042969 138.78125 230.972656 116.28125 234.597656 106.433594 C 235.679688 103.675781 235.140625 100.539062 233.191406 98.265625 Z M 184.164062 61.96875 C 189.144531 65 208.894531 77.496094 225.074219 94.15625 C 224.640625 95.617188 222.476562 102.539062 217.605469 109.410156 C 210.84375 119.09375 202.078125 124.554688 191.632812 125.636719 C 184.976562 105.136719 176.804688 72.464844 184.164062 61.96875 Z M 231.621094 105.351562 C 228.214844 114.65625 217.878906 135.917969 195.042969 135.589844 C 194.339844 133.644531 193.527344 131.316406 192.660156 128.777344 C 203.699219 127.421875 213.222656 121.363281 220.367188 111.195312 C 224.371094 105.40625 226.644531 99.78125 227.671875 96.804688 C 228.753906 97.996094 229.78125 99.132812 230.8125 100.375 C 231.894531 101.730469 232.21875 103.675781 231.621094 105.351562 Z M 79.40625 58.722656 C 78.863281 58.183594 78.050781 58.074219 77.402344 58.453125 C 77.132812 58.617188 48.179688 75.546875 28.808594 98.265625 C 26.859375 100.539062 26.320312 103.675781 27.347656 106.488281 C 30.972656 116.335938 41.90625 138.835938 66.417969 138.835938 C 67.011719 138.835938 67.609375 138.835938 68.203125 138.78125 C 68.851562 138.730469 69.449219 138.351562 69.664062 137.753906 C 69.71875 137.699219 70.960938 134.292969 72.695312 128.9375 C 73.34375 128.722656 73.777344 128.179688 73.832031 127.476562 C 73.832031 127.097656 73.722656 126.71875 73.507812 126.449219 C 75.453125 120.390625 77.835938 112.492188 79.78125 104.269531 C 85.574219 80.363281 85.410156 65.054688 79.40625 58.722656 Z M 77.890625 61.914062 C 85.25 72.410156 77.078125 105.082031 70.476562 125.585938 C 60.03125 124.503906 51.265625 119.039062 44.5 109.355469 C 39.632812 102.433594 37.46875 95.5625 37.035156 94.101562 C 53.105469 77.496094 72.855469 65 77.890625 61.914062 Z M 67.011719 135.589844 C 66.851562 135.589844 66.632812 135.589844 66.472656 135.589844 C 43.960938 135.589844 33.789062 114.550781 30.433594 105.351562 C 29.785156 103.621094 30.164062 101.730469 31.296875 100.375 C 32.328125 99.1875 33.355469 97.996094 34.4375 96.804688 C 35.464844 99.78125 37.683594 105.40625 41.742188 111.195312 C 48.832031 121.363281 58.355469 127.421875 69.449219 128.777344 C 68.582031 131.316406 67.769531 133.589844 67.011719 135.589844 Z M 67.011719 135.589844 " fill-opacity="1" fill-rule="nonzero"/></g><path fill="#ffffff" d="M 131.242188 78.902344 L 164.523438 52.9375 C 173.074219 56.019531 183.785156 59.859375 183.785156 59.859375 C 189.683594 89.070312 197.910156 176.703125 199.75 196.878906 C 199.964844 199.367188 198.503906 201.695312 196.179688 202.558594 C 186.277344 206.183594 159.273438 215.109375 131.570312 215.109375 C 104.621094 215.109375 77.835938 206.671875 67.121094 202.882812 C 64.199219 201.855469 62.414062 198.988281 62.628906 195.90625 C 64.523438 167.992188 77.347656 59.535156 77.347656 59.535156 C 84.113281 57.210938 98.234375 52.503906 98.234375 52.503906 Z M 131.242188 78.902344 " fill-opacity="1" fill-rule="nonzero"/><g clip-path="url(#e091449211)"><path fill="#1e1313" d="M 201.375 196.71875 C 199.75 178.976562 191.308594 89.070312 185.410156 59.535156 C 185.300781 58.996094 184.921875 58.507812 184.382812 58.34375 C 184.273438 58.292969 173.558594 54.503906 165.117188 51.476562 C 164.578125 51.257812 163.980469 51.367188 163.550781 51.746094 L 131.296875 76.84375 L 99.316406 51.257812 C 98.886719 50.933594 98.289062 50.828125 97.800781 50.988281 C 97.640625 51.042969 83.570312 55.695312 76.859375 58.019531 C 76.265625 58.238281 75.832031 58.722656 75.777344 59.375 C 75.671875 60.457031 62.898438 168.15625 61.058594 195.796875 C 60.789062 199.585938 63.0625 203.15625 66.632812 204.398438 C 76.480469 207.914062 101.429688 215.8125 127.238281 216.625 C 127.402344 216.679688 127.5625 216.679688 127.726562 216.679688 C 127.78125 216.679688 127.78125 216.679688 127.835938 216.679688 C 127.941406 216.679688 128.050781 216.679688 128.160156 216.625 C 129.296875 216.679688 130.488281 216.679688 131.621094 216.679688 C 133.082031 216.679688 134.492188 216.625 135.953125 216.625 C 136.058594 216.679688 136.222656 216.679688 136.332031 216.679688 C 136.332031 216.679688 136.382812 216.679688 136.382812 216.679688 C 136.601562 216.679688 136.761719 216.625 136.980469 216.570312 C 162.84375 215.542969 187.140625 207.589844 196.773438 204.019531 C 199.75 202.9375 201.644531 199.910156 201.375 196.71875 Z M 195.582031 200.992188 C 186.222656 204.453125 162.953125 212.082031 138.007812 213.269531 C 138.65625 190.011719 136.761719 82.417969 136.761719 81.28125 C 136.761719 80.363281 136.003906 79.660156 135.085938 79.710938 C 134.167969 79.710938 133.460938 80.46875 133.515625 81.390625 C 133.515625 82.527344 135.410156 190.765625 134.761719 213.433594 C 133.679688 213.433594 132.597656 213.488281 131.515625 213.488281 C 130.757812 213.488281 129.945312 213.488281 129.1875 213.488281 C 127.835938 185.789062 129.242188 81.390625 129.296875 80.363281 C 129.296875 79.441406 128.59375 78.738281 127.671875 78.738281 C 126.808594 78.738281 126.050781 79.441406 126.050781 80.363281 C 126.050781 81.445312 124.640625 185.25 125.941406 213.433594 C 101.050781 212.40625 77.1875 204.832031 67.660156 201.421875 C 65.445312 200.667969 64.089844 198.503906 64.253906 196.121094 C 66.039062 169.996094 77.566406 71.921875 78.863281 60.886719 C 84.816406 58.832031 94.988281 55.425781 97.964844 54.449219 L 130.214844 80.253906 C 130.8125 80.742188 131.621094 80.742188 132.21875 80.253906 L 164.792969 54.828125 C 171.664062 57.316406 179.730469 60.183594 182.324219 61.105469 C 188.222656 91.398438 196.449219 179.515625 198.074219 197.042969 C 198.289062 198.773438 197.261719 200.394531 195.582031 200.992188 Z M 195.582031 200.992188 " fill-opacity="1" fill-rule="nonzero"/></g><path fill="#ffffff" d="M 109.546875 46.878906 C 109.546875 46.878906 124.640625 70.570312 131.570312 78.902344 C 131.570312 78.902344 117.714844 84.6875 108.191406 80.414062 L 112.195312 71.273438 C 112.195312 71.273438 100.941406 74.628906 89.523438 73.871094 C 89.523438 73.871094 93.417969 47.039062 109.546875 46.878906 Z M 153.320312 46.878906 C 153.320312 46.878906 138.222656 70.570312 131.296875 78.902344 C 131.296875 78.902344 145.152344 84.6875 154.675781 80.414062 L 150.671875 71.273438 C 150.671875 71.273438 161.925781 74.628906 173.34375 73.871094 C 173.34375 73.871094 169.394531 47.039062 153.320312 46.878906 Z M 153.320312 46.878906 " fill-opacity="1" fill-rule="nonzero"/><g clip-path="url(#af1c1497bc)"><path fill="#1e1313" d="M 174.914062 73.652344 C 174.75 72.519531 170.582031 45.417969 153.320312 45.253906 C 152.78125 45.253906 152.238281 45.523438 151.96875 46.011719 C 151.808594 46.226562 138.710938 66.785156 131.460938 76.140625 C 124.210938 66.785156 111.058594 46.226562 110.953125 46.011719 C 110.628906 45.523438 110.140625 45.253906 109.597656 45.253906 C 92.335938 45.417969 88.171875 72.464844 88.007812 73.652344 C 87.953125 74.085938 88.0625 74.574219 88.332031 74.898438 C 88.601562 75.277344 89.035156 75.492188 89.46875 75.492188 C 97.421875 76.035156 105.214844 74.628906 109.4375 73.652344 L 106.785156 79.765625 C 106.40625 80.578125 106.785156 81.550781 107.597656 81.875 C 110.410156 83.121094 113.550781 83.605469 116.578125 83.605469 C 123.128906 83.605469 129.351562 81.496094 131.460938 80.6875 C 133.625 81.496094 139.847656 83.605469 146.339844 83.605469 C 149.371094 83.605469 152.511719 83.121094 155.324219 81.875 C 156.136719 81.496094 156.515625 80.578125 156.136719 79.765625 L 153.484375 73.652344 C 157.703125 74.628906 165.496094 75.980469 173.453125 75.492188 C 173.882812 75.4375 174.316406 75.222656 174.589844 74.898438 C 174.859375 74.519531 175.019531 74.085938 174.914062 73.652344 Z M 110.355469 79.550781 L 113.65625 71.921875 C 113.929688 71.328125 113.820312 70.679688 113.386719 70.191406 C 112.953125 69.707031 112.304688 69.542969 111.710938 69.707031 C 111.601562 69.757812 101.753906 72.625 91.417969 72.300781 C 92.554688 66.675781 97.046875 49.421875 108.625 48.5 C 111.167969 52.449219 122.261719 69.652344 128.863281 78.144531 C 125.128906 79.441406 116.851562 81.605469 110.355469 79.550781 Z M 151.101562 69.707031 C 150.507812 69.542969 149.859375 69.707031 149.425781 70.191406 C 148.992188 70.679688 148.882812 71.328125 149.15625 71.921875 L 152.457031 79.550781 C 145.960938 81.660156 137.738281 79.441406 133.949219 78.199219 C 140.550781 69.707031 151.644531 52.503906 154.1875 48.554688 C 165.769531 49.472656 170.257812 66.730469 171.394531 72.355469 C 161.058594 72.625 151.210938 69.757812 151.101562 69.707031 Z M 151.101562 69.707031 " fill-opacity="1" fill-rule="nonzero"/></g><path fill="#1e1313" d="M 163.820312 138.296875 C 160.140625 138.296875 156.730469 137.972656 154.023438 137.59375 C 150.5625 137.105469 148.019531 134.183594 147.910156 130.722656 L 147.261719 102.214844 C 147.261719 101.78125 147.421875 101.296875 147.75 101.027344 C 148.074219 100.699219 148.503906 100.539062 148.992188 100.59375 C 161.601562 101.402344 177.890625 99.617188 178.050781 99.617188 C 178.484375 99.566406 178.917969 99.726562 179.296875 99.996094 C 179.621094 100.269531 179.835938 100.699219 179.890625 101.132812 L 181.515625 128.613281 C 181.730469 132.671875 179.023438 136.242188 175.074219 137.160156 C 171.234375 137.972656 167.390625 138.296875 163.820312 138.296875 Z M 150.5625 103.890625 L 151.210938 130.613281 C 151.265625 132.507812 152.671875 134.078125 154.511719 134.347656 C 159.542969 135.050781 167.066406 135.589844 174.316406 133.914062 C 176.753906 133.375 178.375 131.15625 178.214844 128.722656 L 176.699219 102.917969 C 172.421875 103.40625 160.679688 104.378906 150.5625 103.890625 Z M 150.5625 103.890625 " fill-opacity="1" fill-rule="nonzero"/><path fill="#ffffff" d="M 172.261719 119.632812 C 172.152344 120.5 171.992188 121.417969 171.613281 122.285156 L 170.746094 121.90625 C 171.015625 121.203125 171.234375 120.390625 171.285156 119.632812 Z M 170.3125 122.769531 C 170.203125 122.933594 170.097656 123.097656 169.988281 123.257812 C 169.878906 123.421875 169.773438 123.582031 169.609375 123.746094 L 170.3125 124.339844 C 170.476562 124.175781 170.582031 124.015625 170.746094 123.851562 C 170.855469 123.691406 171.015625 123.472656 171.125 123.3125 Z M 168.960938 124.449219 C 168.363281 124.933594 167.714844 125.367188 166.902344 125.691406 L 167.230469 126.558594 C 168.09375 126.234375 168.851562 125.746094 169.5 125.152344 Z M 165.984375 125.960938 C 165.226562 126.125 164.414062 126.234375 163.601562 126.125 L 163.496094 127.042969 C 164.359375 127.152344 165.28125 127.042969 166.144531 126.828125 Z M 162.628906 126.015625 C 162.414062 125.960938 162.25 125.910156 162.035156 125.855469 L 161.492188 125.636719 L 161.113281 126.503906 L 161.761719 126.71875 C 161.980469 126.828125 162.195312 126.828125 162.414062 126.882812 Z M 160.628906 125.207031 C 159.921875 124.773438 159.328125 124.285156 158.789062 123.691406 L 158.082031 124.285156 C 158.679688 124.988281 159.328125 125.53125 160.140625 126.015625 Z M 158.191406 122.824219 C 157.757812 122.121094 157.488281 121.417969 157.324219 120.609375 L 156.460938 120.824219 C 156.621094 121.6875 157 122.554688 157.488281 123.257812 Z M 157.164062 119.6875 L 157.109375 119.09375 L 157.164062 118.496094 L 156.242188 118.390625 L 156.191406 119.09375 L 156.242188 119.796875 Z M 157.324219 117.46875 C 157.488281 116.710938 157.8125 115.957031 158.191406 115.253906 L 157.378906 114.765625 C 156.894531 115.523438 156.515625 116.386719 156.351562 117.253906 Z M 158.789062 114.496094 C 159.273438 113.898438 159.921875 113.359375 160.628906 112.980469 L 160.140625 112.167969 C 159.382812 112.65625 158.679688 113.25 158.082031 113.898438 Z M 161.492188 112.492188 L 162.035156 112.277344 C 162.195312 112.167969 162.414062 112.167969 162.628906 112.113281 L 162.414062 111.25 C 162.195312 111.304688 161.980469 111.359375 161.761719 111.410156 L 161.113281 111.628906 Z M 163.601562 112.007812 C 164.414062 111.898438 165.226562 112.007812 165.984375 112.167969 L 166.199219 111.304688 C 165.335938 111.085938 164.414062 111.03125 163.550781 111.085938 Z M 166.957031 112.492188 C 167.660156 112.765625 168.363281 113.195312 169.015625 113.738281 L 169.609375 113.035156 C 168.90625 112.4375 168.148438 111.953125 167.335938 111.628906 Z M 169.664062 114.441406 C 169.773438 114.550781 169.933594 114.710938 170.042969 114.925781 C 170.152344 115.089844 170.257812 115.253906 170.367188 115.414062 L 171.179688 114.925781 C 171.070312 114.710938 170.960938 114.550781 170.800781 114.386719 C 170.691406 114.222656 170.53125 114.007812 170.367188 113.898438 Z M 170.800781 116.28125 C 171.070312 116.984375 171.285156 117.792969 171.339844 118.550781 L 172.261719 118.445312 C 172.152344 117.578125 171.992188 116.660156 171.613281 115.792969 Z M 170.800781 116.28125 " fill-opacity="1" fill-rule="nonzero"/><path fill="#bf323d" d="M 159.003906 109.355469 L 169.609375 108.976562 C 172.207031 108.867188 174.371094 111.03125 174.261719 113.628906 C 174.046875 119.527344 172.53125 128.722656 164.957031 128.992188 C 157.378906 129.261719 155.269531 120.175781 154.675781 114.277344 C 154.351562 111.734375 156.351562 109.464844 159.003906 109.355469 Z M 159.003906 109.355469 " fill-opacity="1" fill-rule="nonzero"/><path fill="#ffffff" d="M 157.433594 115.414062 L 156.515625 115.523438 C 156.460938 115.035156 156.515625 114.496094 156.675781 114.0625 L 157.542969 114.332031 C 157.433594 114.601562 157.433594 115.035156 157.433594 115.414062 Z M 158.355469 120.066406 L 157.488281 120.335938 C 157.757812 121.203125 158.082031 122.066406 158.460938 122.878906 L 159.273438 122.445312 C 158.894531 121.6875 158.570312 120.933594 158.355469 120.066406 Z M 159.816406 112.167969 L 159.652344 111.25 C 158.679688 111.464844 157.757812 112.007812 157.21875 112.871094 L 157.976562 113.414062 C 158.410156 112.765625 159.113281 112.332031 159.816406 112.167969 Z M 157.597656 116.496094 L 156.675781 116.605469 C 156.785156 117.46875 156.949219 118.390625 157.164062 119.253906 L 158.082031 119.039062 C 157.867188 118.171875 157.703125 117.363281 157.597656 116.496094 Z M 171.449219 114.441406 L 172.371094 114.332031 C 172.261719 113.359375 171.71875 112.386719 170.910156 111.789062 L 170.3125 112.492188 C 170.960938 112.980469 171.339844 113.683594 171.449219 114.441406 Z M 165.929688 111.953125 L 165.929688 111.03125 L 164.632812 111.085938 L 164.683594 112.007812 Z M 168.363281 111.84375 C 168.742188 111.84375 169.121094 111.898438 169.5 112.007812 L 169.824219 111.140625 C 169.339844 110.980469 168.851562 110.871094 168.363281 110.925781 L 167.066406 110.980469 L 167.066406 111.898438 Z M 163.550781 112.007812 L 163.496094 111.085938 L 160.84375 111.195312 L 160.898438 112.113281 Z M 167.769531 125.257812 L 168.3125 126.015625 C 168.742188 125.746094 169.015625 125.421875 169.394531 125.097656 L 168.691406 124.449219 C 168.363281 124.773438 168.09375 125.097656 167.769531 125.257812 Z M 169.339844 123.636719 L 170.097656 124.175781 C 170.636719 123.421875 170.960938 122.554688 171.285156 121.6875 L 170.421875 121.363281 C 170.152344 122.175781 169.773438 122.988281 169.339844 123.636719 Z M 170.746094 120.335938 L 171.664062 120.554688 C 171.882812 119.6875 172.097656 118.769531 172.207031 117.902344 L 171.285156 117.792969 C 171.125 118.660156 170.960938 119.527344 170.746094 120.335938 Z M 171.449219 115.46875 C 171.449219 115.902344 171.394531 116.335938 171.339844 116.765625 L 172.261719 116.875 C 172.316406 116.441406 172.316406 115.957031 172.371094 115.523438 Z M 169.71875 116.605469 C 169.554688 121.417969 167.824219 124.125 164.792969 124.230469 C 164.738281 124.230469 164.683594 124.230469 164.632812 124.230469 C 161.710938 124.230469 159.871094 121.636719 159.382812 116.984375 C 159.328125 116.226562 159.542969 115.414062 160.085938 114.820312 C 160.574219 114.222656 161.332031 113.898438 162.140625 113.847656 L 166.851562 113.683594 C 167.609375 113.683594 168.363281 113.953125 168.960938 114.496094 C 169.449219 115.035156 169.71875 115.792969 169.71875 116.605469 Z M 168.09375 116.550781 C 168.09375 116.226562 167.984375 115.902344 167.769531 115.683594 C 167.554688 115.46875 167.230469 115.304688 166.902344 115.359375 L 162.195312 115.523438 C 161.871094 115.523438 161.546875 115.683594 161.332031 115.957031 C 161.113281 116.226562 161.003906 116.550781 161.058594 116.875 C 161.277344 119.09375 162.089844 122.769531 164.792969 122.664062 C 167.445312 122.5 167.984375 118.769531 168.09375 116.550781 Z M 159.003906 123.90625 C 159.273438 124.285156 159.542969 124.664062 159.871094 124.988281 L 160.574219 124.394531 C 160.300781 124.125 160.085938 123.746094 159.816406 123.421875 Z M 162.304688 125.746094 C 162.140625 125.691406 161.980469 125.53125 161.761719 125.421875 L 161.492188 125.257812 L 161.277344 125.042969 L 160.679688 125.746094 L 160.953125 125.960938 L 161.277344 126.125 C 161.492188 126.234375 161.65625 126.394531 161.925781 126.503906 L 162.574219 126.773438 C 162.792969 126.882812 163.0625 126.882812 163.277344 126.9375 L 163.441406 126.015625 C 163.222656 125.960938 163.0625 125.960938 162.84375 125.855469 Z M 166.632812 125.910156 L 166.363281 126.015625 C 166.144531 126.070312 165.984375 126.125 165.769531 126.179688 L 165.171875 126.234375 C 165.0625 126.234375 164.957031 126.289062 164.847656 126.289062 L 164.523438 126.289062 L 164.523438 127.207031 L 164.902344 127.207031 C 165.011719 127.207031 165.117188 127.207031 165.28125 127.152344 L 165.984375 127.097656 C 166.199219 127.042969 166.472656 126.992188 166.6875 126.9375 L 167.011719 126.828125 C 167.121094 126.773438 167.230469 126.71875 167.335938 126.664062 L 166.957031 125.800781 C 166.796875 125.800781 166.6875 125.855469 166.632812 125.910156 Z M 166.632812 125.910156 " fill-opacity="1" fill-rule="nonzero"/></svg>