<svg xmlns="http://www.w3.org/2000/svg" xmlns:xlink="http://www.w3.org/1999/xlink" width="350" zoomAndPan="magnify" viewBox="0 0 262.5 262.500001" height="350" preserveAspectRatio="xMidYMid meet" version="1.0"><defs><clipPath id="a04f615539"><path d="M 36.167969 9.671875 L 226.089844 9.671875 L 226.089844 252.210938 L 36.167969 252.210938 Z M 36.167969 9.671875 " clip-rule="nonzero"/></clipPath><clipPath id="062777e4c4"><path d="M 36.167969 9.671875 L 226.089844 9.671875 L 226.089844 252.210938 L 36.167969 252.210938 Z M 36.167969 9.671875 " clip-rule="nonzero"/></clipPath></defs><path fill="#ffffff" d="M 215.289062 167.675781 L 215.289062 232.675781 L 221.675781 232.042969 L 215.289062 167.675781 " fill-opacity="1" fill-rule="nonzero"/><path fill="#ffffff" d="M 95.785156 244.484375 L 61.878906 244.484375 L 62.210938 247.804688 Z M 95.785156 244.484375 " fill-opacity="1" fill-rule="nonzero"/><path fill="#ffffff" d="M 166.472656 17.398438 L 200.378906 17.398438 L 200.050781 14.078125 L 166.472656 17.398438 " fill-opacity="1" fill-rule="nonzero"/><path fill="#ffffff" d="M 46.96875 94.207031 L 46.96875 29.210938 L 40.585938 29.839844 L 46.96875 94.207031 " fill-opacity="1" fill-rule="nonzero"/><g clip-path="url(#a04f615539)"><path fill="#333333" d="M 215.289062 167.675781 L 221.675781 232.042969 L 215.289062 232.675781 Z M 166.472656 17.398438 L 200.050781 14.078125 L 200.378906 17.398438 Z M 51.007812 21.425781 L 211.253906 21.425781 L 211.253906 202.929688 L 163.144531 161.1875 C 162.398438 160.539062 161.292969 160.527344 160.53125 161.15625 L 145.730469 173.445312 L 111.167969 138.976562 C 110.777344 138.585938 110.277344 138.355469 109.695312 138.386719 C 109.144531 138.398438 108.621094 138.636719 108.25 139.042969 L 51.007812 201.621094 Z M 46.96875 94.207031 L 40.585938 29.839844 L 46.96875 29.207031 Z M 51.007812 240.457031 L 51.007812 207.59375 L 109.808594 143.316406 L 144.179688 177.59375 C 144.917969 178.328125 146.097656 178.382812 146.898438 177.71875 L 161.792969 165.351562 L 210.183594 207.339844 L 211.253906 208.269531 L 211.253906 240.457031 Z M 95.785156 244.484375 L 62.210938 247.804688 L 61.878906 244.484375 Z M 215.289062 126.796875 L 215.289062 17.398438 L 204.433594 17.398438 L 203.667969 9.671875 L 125.515625 17.398438 L 46.96875 17.398438 L 46.96875 25.160156 L 36.167969 26.226562 L 46.96875 135.085938 L 46.96875 244.484375 L 57.824219 244.484375 L 58.589844 252.210938 L 136.746094 244.484375 L 215.289062 244.484375 L 215.289062 236.722656 L 226.089844 235.65625 L 215.289062 126.796875 " fill-opacity="1" fill-rule="nonzero"/></g><path fill="#49beeb" d="M 124.183594 48.992188 C 128.453125 50.457031 130.460938 52.519531 130.460938 55.679688 C 130.460938 59.4375 127.339844 62.628906 120.703125 62.628906 C 117.941406 62.628906 115.214844 61.964844 113.855469 61.265625 L 114.964844 57.074219 C 116.4375 57.773438 118.695312 58.472656 121.027344 58.472656 C 123.539062 58.472656 124.863281 57.507812 124.863281 56.042969 C 124.863281 54.648438 123.71875 53.851562 120.8125 52.882812 C 116.792969 51.589844 114.175781 49.527344 114.175781 46.265625 C 114.175781 42.441406 117.621094 39.515625 123.324219 39.515625 C 126.046875 39.515625 128.058594 40.046875 129.492188 40.644531 L 128.273438 44.738281 C 127.304688 44.304688 125.582031 43.671875 123.214844 43.671875 C 120.847656 43.671875 119.699219 44.671875 119.699219 45.835938 C 119.699219 47.265625 121.0625 47.894531 124.183594 48.992188 Z M 132.320312 39.882812 L 150.902344 39.882812 L 150.902344 44.140625 L 144.300781 44.140625 L 144.300781 62.296875 L 138.8125 62.296875 L 138.8125 44.140625 L 132.320312 44.140625 Z M 153.800781 39.882812 L 168.722656 39.882812 L 168.722656 44.039062 L 159.289062 44.039062 L 159.289062 48.695312 L 168.183594 48.695312 L 168.183594 52.820312 L 159.289062 52.820312 L 159.289062 58.140625 L 169.222656 58.140625 L 169.222656 62.296875 L 153.800781 62.296875 Z M 172.949219 40.179688 C 174.707031 39.914062 177.324219 39.714844 180.230469 39.714844 C 183.816406 39.714844 186.328125 40.214844 188.050781 41.476562 C 189.484375 42.542969 190.273438 44.105469 190.273438 46.167969 C 190.273438 49.027344 188.085938 50.988281 186.003906 51.6875 L 186.003906 51.789062 C 187.691406 52.417969 188.625 53.914062 189.234375 55.976562 C 189.988281 58.503906 190.742188 61.433594 191.207031 62.296875 L 185.609375 62.296875 C 185.214844 61.664062 184.640625 59.835938 183.925781 57.074219 C 183.277344 54.28125 182.238281 53.515625 180.015625 53.484375 L 178.363281 53.484375 L 178.363281 62.296875 L 172.949219 62.296875 Z M 196.867188 56.511719 C 198.769531 56.511719 200.058594 57.773438 200.058594 59.601562 C 200.058594 61.367188 198.769531 62.664062 196.832031 62.664062 C 194.964844 62.664062 193.636719 61.367188 193.636719 59.601562 C 193.636719 57.808594 194.964844 56.511719 196.867188 56.511719 Z M 164.105469 129.835938 C 153.378906 129.835938 144.65625 121.125 144.65625 110.417969 C 144.65625 99.714844 153.378906 91.003906 164.105469 91.003906 C 174.835938 91.003906 183.558594 99.714844 183.558594 110.417969 C 183.558594 121.125 174.835938 129.835938 164.105469 129.835938 Z M 99.332031 62.664062 C 92.160156 62.664062 87.964844 57.640625 87.964844 51.253906 C 87.964844 44.535156 92.589844 39.515625 99.726562 39.515625 C 107.152344 39.515625 111.207031 44.671875 111.207031 50.855469 C 111.207031 58.207031 106.398438 62.664062 99.332031 62.664062 Z M 83.378906 52.019531 C 81.511719 53.652344 78.75 54.382812 75.523438 54.382812 C 74.804688 54.382812 74.160156 54.347656 73.65625 54.28125 L 73.65625 62.296875 L 68.242188 62.296875 L 68.242188 40.179688 C 69.925781 39.914062 72.292969 39.714844 75.628906 39.714844 C 79 39.714844 81.40625 40.3125 83.019531 41.511719 C 84.5625 42.640625 85.601562 44.503906 85.601562 46.699219 C 85.601562 48.894531 84.8125 50.757812 83.378906 52.019531 Z M 51.007812 201.621094 L 108.25 139.042969 C 108.621094 138.636719 109.144531 138.398438 109.695312 138.386719 C 110.277344 138.355469 110.777344 138.585938 111.167969 138.976562 L 145.734375 173.445312 L 160.53125 161.15625 C 161.292969 160.527344 162.402344 160.539062 163.144531 161.1875 L 211.253906 202.929688 L 211.253906 21.425781 L 51.007812 21.425781 L 51.007812 201.621094 " fill-opacity="1" fill-rule="nonzero"/><path fill="#3dcc63" d="M 211.253906 240.457031 L 211.253906 208.269531 L 210.183594 207.339844 L 51.714844 206.824219 L 51.007812 207.59375 L 51.007812 240.457031 L 211.253906 240.457031 " fill-opacity="1" fill-rule="nonzero"/><path fill="#49beeb" d="M 184.855469 46.601562 C 184.855469 44.539062 183.347656 43.507812 180.839844 43.472656 C 179.511719 43.472656 178.757812 43.574219 178.363281 43.640625 L 178.363281 49.828125 L 180.515625 49.828125 C 183.242188 49.828125 184.855469 48.5625 184.855469 46.601562 " fill-opacity="1" fill-rule="nonzero"/><path fill="#49beeb" d="M 75.917969 43.539062 C 74.804688 43.539062 74.050781 43.640625 73.65625 43.738281 L 73.65625 50.359375 C 74.125 50.457031 74.699219 50.492188 75.488281 50.492188 C 78.390625 50.492188 80.183594 49.128906 80.183594 46.832031 C 80.183594 44.769531 78.644531 43.539062 75.917969 43.539062 " fill-opacity="1" fill-rule="nonzero"/><path fill="#49beeb" d="M 99.585938 43.539062 C 95.890625 43.539062 93.738281 46.800781 93.738281 51.15625 C 93.738281 55.546875 95.960938 58.640625 99.621094 58.640625 C 103.316406 58.640625 105.429688 55.378906 105.429688 51.023438 C 105.429688 46.996094 103.351562 43.539062 99.585938 43.539062 " fill-opacity="1" fill-rule="nonzero"/><path fill="#3dcc63" d="M 210.183594 207.339844 L 161.792969 165.351562 L 146.898438 177.71875 C 146.097656 178.382812 144.917969 178.328125 144.179688 177.59375 L 109.808594 143.316406 L 51.007812 207.59375 L 210.183594 207.339844 " fill-opacity="1" fill-rule="nonzero"/><path fill="#f8ed34" d="M 179.949219 110.417969 C 179.949219 101.703125 172.84375 94.609375 164.105469 94.609375 C 155.371094 94.609375 148.265625 101.703125 148.265625 110.417969 C 148.265625 119.136719 155.371094 126.230469 164.105469 126.230469 C 172.84375 126.230469 179.949219 119.136719 179.949219 110.417969 " fill-opacity="1" fill-rule="nonzero"/><path fill="#333333" d="M 148.265625 110.417969 C 148.265625 101.703125 155.371094 94.609375 164.105469 94.609375 C 172.84375 94.609375 179.949219 101.703125 179.949219 110.417969 C 179.949219 119.136719 172.84375 126.230469 164.105469 126.230469 C 155.371094 126.230469 148.265625 119.136719 148.265625 110.417969 Z M 164.105469 91.003906 C 153.378906 91.003906 144.65625 99.714844 144.65625 110.417969 C 144.65625 121.125 153.378906 129.835938 164.105469 129.835938 C 174.835938 129.835938 183.558594 121.125 183.558594 110.417969 C 183.558594 99.714844 174.835938 91.003906 164.105469 91.003906 " fill-opacity="1" fill-rule="nonzero"/><path fill="#333333" d="M 75.488281 50.488281 C 74.699219 50.488281 74.125 50.457031 73.65625 50.359375 L 73.65625 43.738281 C 74.050781 43.640625 74.804688 43.539062 75.917969 43.539062 C 78.644531 43.539062 80.183594 44.769531 80.183594 46.832031 C 80.183594 49.125 78.390625 50.488281 75.488281 50.488281 Z M 83.019531 41.511719 C 81.40625 40.3125 79 39.714844 75.628906 39.714844 C 72.292969 39.714844 69.925781 39.914062 68.242188 40.179688 L 68.242188 62.296875 L 73.65625 62.296875 L 73.65625 54.28125 C 74.160156 54.347656 74.804688 54.382812 75.523438 54.382812 C 78.75 54.382812 81.511719 53.648438 83.378906 52.019531 C 84.8125 50.757812 85.601562 48.894531 85.601562 46.699219 C 85.601562 44.503906 84.5625 42.640625 83.019531 41.511719 " fill-opacity="1" fill-rule="nonzero"/><path fill="#333333" d="M 99.621094 58.640625 C 95.960938 58.640625 93.738281 55.546875 93.738281 51.15625 C 93.738281 46.800781 95.890625 43.539062 99.585938 43.539062 C 103.351562 43.539062 105.429688 47 105.429688 51.023438 C 105.429688 55.382812 103.316406 58.640625 99.621094 58.640625 Z M 99.726562 39.515625 C 92.589844 39.515625 87.960938 44.539062 87.960938 51.257812 C 87.960938 57.640625 92.160156 62.664062 99.332031 62.664062 C 106.398438 62.664062 111.207031 58.207031 111.207031 50.855469 C 111.207031 44.671875 107.152344 39.515625 99.726562 39.515625 " fill-opacity="1" fill-rule="nonzero"/><path fill="#333333" d="M 123.214844 43.671875 C 125.582031 43.671875 127.304688 44.304688 128.273438 44.738281 L 129.492188 40.644531 C 128.058594 40.046875 126.046875 39.515625 123.324219 39.515625 C 117.621094 39.515625 114.175781 42.441406 114.175781 46.265625 C 114.175781 49.527344 116.792969 51.589844 120.8125 52.886719 C 123.71875 53.851562 124.863281 54.648438 124.863281 56.046875 C 124.863281 57.507812 123.539062 58.472656 121.027344 58.472656 C 118.695312 58.472656 116.4375 57.773438 114.964844 57.074219 L 113.851562 61.265625 C 115.214844 61.964844 117.941406 62.628906 120.703125 62.628906 C 127.339844 62.628906 130.460938 59.4375 130.460938 55.679688 C 130.460938 52.519531 128.453125 50.457031 124.183594 48.996094 C 121.0625 47.898438 119.699219 47.265625 119.699219 45.835938 C 119.699219 44.671875 120.847656 43.671875 123.214844 43.671875 " fill-opacity="1" fill-rule="nonzero"/><path fill="#333333" d="M 138.8125 62.296875 L 144.300781 62.296875 L 144.300781 44.140625 L 150.902344 44.140625 L 150.902344 39.882812 L 132.320312 39.882812 L 132.320312 44.140625 L 138.8125 44.140625 L 138.8125 62.296875 " fill-opacity="1" fill-rule="nonzero"/><path fill="#333333" d="M 169.222656 58.140625 L 159.289062 58.140625 L 159.289062 52.820312 L 168.183594 52.820312 L 168.183594 48.695312 L 159.289062 48.695312 L 159.289062 44.039062 L 168.722656 44.039062 L 168.722656 39.882812 L 153.800781 39.882812 L 153.800781 62.296875 L 169.222656 62.296875 L 169.222656 58.140625 " fill-opacity="1" fill-rule="nonzero"/><path fill="#333333" d="M 178.363281 43.640625 C 178.757812 43.574219 179.511719 43.472656 180.839844 43.472656 C 183.347656 43.507812 184.855469 44.539062 184.855469 46.601562 C 184.855469 48.5625 183.242188 49.828125 180.515625 49.828125 L 178.363281 49.828125 Z M 178.363281 53.484375 L 180.011719 53.484375 C 182.238281 53.515625 183.277344 54.28125 183.925781 57.074219 C 184.640625 59.835938 185.214844 61.664062 185.609375 62.296875 L 191.207031 62.296875 C 190.738281 61.433594 189.988281 58.507812 189.234375 55.976562 C 188.625 53.917969 187.691406 52.417969 186.003906 51.789062 L 186.003906 51.6875 C 188.085938 50.988281 190.273438 49.027344 190.273438 46.167969 C 190.273438 44.105469 189.484375 42.542969 188.050781 41.476562 C 186.328125 40.214844 183.816406 39.714844 180.230469 39.714844 C 177.324219 39.714844 174.707031 39.914062 172.949219 40.179688 L 172.949219 62.296875 L 178.363281 62.296875 L 178.363281 53.484375 " fill-opacity="1" fill-rule="nonzero"/><path fill="#333333" d="M 196.832031 62.664062 C 198.765625 62.664062 200.058594 61.367188 200.058594 59.601562 C 200.058594 57.773438 198.765625 56.511719 196.867188 56.511719 C 194.964844 56.511719 193.636719 57.808594 193.636719 59.601562 C 193.636719 61.367188 194.964844 62.664062 196.832031 62.664062 " fill-opacity="1" fill-rule="nonzero"/><path fill="#ffffff" d="M 215.289062 167.675781 L 215.289062 232.675781 L 221.675781 232.042969 L 215.289062 167.675781 " fill-opacity="1" fill-rule="nonzero"/><path fill="#ffffff" d="M 95.785156 244.484375 L 61.878906 244.484375 L 62.210938 247.804688 Z M 95.785156 244.484375 " fill-opacity="1" fill-rule="nonzero"/><path fill="#ffffff" d="M 166.472656 17.398438 L 200.378906 17.398438 L 200.050781 14.078125 L 166.472656 17.398438 " fill-opacity="1" fill-rule="nonzero"/><path fill="#ffffff" d="M 46.96875 94.207031 L 46.96875 29.210938 L 40.585938 29.839844 L 46.96875 94.207031 " fill-opacity="1" fill-rule="nonzero"/><g clip-path="url(#062777e4c4)"><path fill="#333333" d="M 215.289062 167.675781 L 221.675781 232.042969 L 215.289062 232.675781 Z M 166.472656 17.398438 L 200.050781 14.078125 L 200.378906 17.398438 Z M 51.007812 21.425781 L 211.253906 21.425781 L 211.253906 202.929688 L 163.144531 161.1875 C 162.398438 160.539062 161.292969 160.527344 160.53125 161.15625 L 145.730469 173.445312 L 111.167969 138.976562 C 110.777344 138.585938 110.277344 138.355469 109.695312 138.386719 C 109.144531 138.398438 108.621094 138.636719 108.25 139.042969 L 51.007812 201.621094 Z M 46.96875 94.207031 L 40.585938 29.839844 L 46.96875 29.207031 Z M 51.007812 240.457031 L 51.007812 207.59375 L 109.808594 143.316406 L 144.179688 177.59375 C 144.917969 178.328125 146.097656 178.382812 146.898438 177.71875 L 161.792969 165.351562 L 210.183594 207.339844 L 211.253906 208.269531 L 211.253906 240.457031 Z M 95.785156 244.484375 L 62.210938 247.804688 L 61.878906 244.484375 Z M 215.289062 126.796875 L 215.289062 17.398438 L 204.433594 17.398438 L 203.667969 9.671875 L 125.515625 17.398438 L 46.96875 17.398438 L 46.96875 25.160156 L 36.167969 26.226562 L 46.96875 135.085938 L 46.96875 244.484375 L 57.824219 244.484375 L 58.589844 252.210938 L 136.746094 244.484375 L 215.289062 244.484375 L 215.289062 236.722656 L 226.089844 235.65625 L 215.289062 126.796875 " fill-opacity="1" fill-rule="nonzero"/></g><path fill="#49beeb" d="M 124.183594 48.992188 C 128.453125 50.457031 130.460938 52.519531 130.460938 55.679688 C 130.460938 59.4375 127.339844 62.628906 120.703125 62.628906 C 117.941406 62.628906 115.214844 61.964844 113.855469 61.265625 L 114.964844 57.074219 C 116.4375 57.773438 118.695312 58.472656 121.027344 58.472656 C 123.539062 58.472656 124.863281 57.507812 124.863281 56.042969 C 124.863281 54.648438 123.71875 53.851562 120.8125 52.882812 C 116.792969 51.589844 114.175781 49.527344 114.175781 46.265625 C 114.175781 42.441406 117.621094 39.515625 123.324219 39.515625 C 126.046875 39.515625 128.058594 40.046875 129.492188 40.644531 L 128.273438 44.738281 C 127.304688 44.304688 125.582031 43.671875 123.214844 43.671875 C 120.847656 43.671875 119.699219 44.671875 119.699219 45.835938 C 119.699219 47.265625 121.0625 47.894531 124.183594 48.992188 Z M 132.320312 39.882812 L 150.902344 39.882812 L 150.902344 44.140625 L 144.300781 44.140625 L 144.300781 62.296875 L 138.8125 62.296875 L 138.8125 44.140625 L 132.320312 44.140625 Z M 153.800781 39.882812 L 168.722656 39.882812 L 168.722656 44.039062 L 159.289062 44.039062 L 159.289062 48.695312 L 168.183594 48.695312 L 168.183594 52.820312 L 159.289062 52.820312 L 159.289062 58.140625 L 169.222656 58.140625 L 169.222656 62.296875 L 153.800781 62.296875 Z M 172.949219 40.179688 C 174.707031 39.914062 177.324219 39.714844 180.230469 39.714844 C 183.816406 39.714844 186.328125 40.214844 188.050781 41.476562 C 189.484375 42.542969 190.273438 44.105469 190.273438 46.167969 C 190.273438 49.027344 188.085938 50.988281 186.003906 51.6875 L 186.003906 51.789062 C 187.691406 52.417969 188.625 53.914062 189.234375 55.976562 C 189.988281 58.503906 190.742188 61.433594 191.207031 62.296875 L 185.609375 62.296875 C 185.214844 61.664062 184.640625 59.835938 183.925781 57.074219 C 183.277344 54.28125 182.238281 53.515625 180.015625 53.484375 L 178.363281 53.484375 L 178.363281 62.296875 L 172.949219 62.296875 Z M 196.867188 56.511719 C 198.769531 56.511719 200.058594 57.773438 200.058594 59.601562 C 200.058594 61.367188 198.769531 62.664062 196.832031 62.664062 C 194.964844 62.664062 193.636719 61.367188 193.636719 59.601562 C 193.636719 57.808594 194.964844 56.511719 196.867188 56.511719 Z M 164.105469 129.835938 C 153.378906 129.835938 144.65625 121.125 144.65625 110.417969 C 144.65625 99.714844 153.378906 91.003906 164.105469 91.003906 C 174.835938 91.003906 183.558594 99.714844 183.558594 110.417969 C 183.558594 121.125 174.835938 129.835938 164.105469 129.835938 Z M 99.332031 62.664062 C 92.160156 62.664062 87.964844 57.640625 87.964844 51.253906 C 87.964844 44.535156 92.589844 39.515625 99.726562 39.515625 C 107.152344 39.515625 111.207031 44.671875 111.207031 50.855469 C 111.207031 58.207031 106.398438 62.664062 99.332031 62.664062 Z M 83.378906 52.019531 C 81.511719 53.652344 78.75 54.382812 75.523438 54.382812 C 74.804688 54.382812 74.160156 54.347656 73.65625 54.28125 L 73.65625 62.296875 L 68.242188 62.296875 L 68.242188 40.179688 C 69.925781 39.914062 72.292969 39.714844 75.628906 39.714844 C 79 39.714844 81.40625 40.3125 83.019531 41.511719 C 84.5625 42.640625 85.601562 44.503906 85.601562 46.699219 C 85.601562 48.894531 84.8125 50.757812 83.378906 52.019531 Z M 51.007812 201.621094 L 108.25 139.042969 C 108.621094 138.636719 109.144531 138.398438 109.695312 138.386719 C 110.277344 138.355469 110.777344 138.585938 111.167969 138.976562 L 145.734375 173.445312 L 160.53125 161.15625 C 161.292969 160.527344 162.402344 160.539062 163.144531 161.1875 L 211.253906 202.929688 L 211.253906 21.425781 L 51.007812 21.425781 L 51.007812 201.621094 " fill-opacity="1" fill-rule="nonzero"/><path fill="#3dcc63" d="M 211.253906 240.457031 L 211.253906 208.269531 L 210.183594 207.339844 L 51.714844 206.824219 L 51.007812 207.59375 L 51.007812 240.457031 L 211.253906 240.457031 " fill-opacity="1" fill-rule="nonzero"/><path fill="#49beeb" d="M 184.855469 46.601562 C 184.855469 44.539062 183.347656 43.507812 180.839844 43.472656 C 179.511719 43.472656 178.757812 43.574219 178.363281 43.640625 L 178.363281 49.828125 L 180.515625 49.828125 C 183.242188 49.828125 184.855469 48.5625 184.855469 46.601562 " fill-opacity="1" fill-rule="nonzero"/><path fill="#49beeb" d="M 75.917969 43.539062 C 74.804688 43.539062 74.050781 43.640625 73.65625 43.738281 L 73.65625 50.359375 C 74.125 50.457031 74.699219 50.492188 75.488281 50.492188 C 78.390625 50.492188 80.183594 49.128906 80.183594 46.832031 C 80.183594 44.769531 78.644531 43.539062 75.917969 43.539062 " fill-opacity="1" fill-rule="nonzero"/><path fill="#49beeb" d="M 99.585938 43.539062 C 95.890625 43.539062 93.738281 46.800781 93.738281 51.15625 C 93.738281 55.546875 95.960938 58.640625 99.621094 58.640625 C 103.316406 58.640625 105.429688 55.378906 105.429688 51.023438 C 105.429688 46.996094 103.351562 43.539062 99.585938 43.539062 " fill-opacity="1" fill-rule="nonzero"/><path fill="#3dcc63" d="M 210.183594 207.339844 L 161.792969 165.351562 L 146.898438 177.71875 C 146.097656 178.382812 144.917969 178.328125 144.179688 177.59375 L 109.808594 143.316406 L 51.007812 207.59375 L 210.183594 207.339844 " fill-opacity="1" fill-rule="nonzero"/><path fill="#f8ed34" d="M 179.949219 110.417969 C 179.949219 101.703125 172.84375 94.609375 164.105469 94.609375 C 155.371094 94.609375 148.265625 101.703125 148.265625 110.417969 C 148.265625 119.136719 155.371094 126.230469 164.105469 126.230469 C 172.84375 126.230469 179.949219 119.136719 179.949219 110.417969 " fill-opacity="1" fill-rule="nonzero"/><path fill="#333333" d="M 148.265625 110.417969 C 148.265625 101.703125 155.371094 94.609375 164.105469 94.609375 C 172.84375 94.609375 179.949219 101.703125 179.949219 110.417969 C 179.949219 119.136719 172.84375 126.230469 164.105469 126.230469 C 155.371094 126.230469 148.265625 119.136719 148.265625 110.417969 Z M 164.105469 91.003906 C 153.378906 91.003906 144.65625 99.714844 144.65625 110.417969 C 144.65625 121.125 153.378906 129.835938 164.105469 129.835938 C 174.835938 129.835938 183.558594 121.125 183.558594 110.417969 C 183.558594 99.714844 174.835938 91.003906 164.105469 91.003906 " fill-opacity="1" fill-rule="nonzero"/><path fill="#333333" d="M 75.488281 50.488281 C 74.699219 50.488281 74.125 50.457031 73.65625 50.359375 L 73.65625 43.738281 C 74.050781 43.640625 74.804688 43.539062 75.917969 43.539062 C 78.644531 43.539062 80.183594 44.769531 80.183594 46.832031 C 80.183594 49.125 78.390625 50.488281 75.488281 50.488281 Z M 83.019531 41.511719 C 81.40625 40.3125 79 39.714844 75.628906 39.714844 C 72.292969 39.714844 69.925781 39.914062 68.242188 40.179688 L 68.242188 62.296875 L 73.65625 62.296875 L 73.65625 54.28125 C 74.160156 54.347656 74.804688 54.382812 75.523438 54.382812 C 78.75 54.382812 81.511719 53.648438 83.378906 52.019531 C 84.8125 50.757812 85.601562 48.894531 85.601562 46.699219 C 85.601562 44.503906 84.5625 42.640625 83.019531 41.511719 " fill-opacity="1" fill-rule="nonzero"/><path fill="#333333" d="M 99.621094 58.640625 C 95.960938 58.640625 93.738281 55.546875 93.738281 51.15625 C 93.738281 46.800781 95.890625 43.539062 99.585938 43.539062 C 103.351562 43.539062 105.429688 47 105.429688 51.023438 C 105.429688 55.382812 103.316406 58.640625 99.621094 58.640625 Z M 99.726562 39.515625 C 92.589844 39.515625 87.960938 44.539062 87.960938 51.257812 C 87.960938 57.640625 92.160156 62.664062 99.332031 62.664062 C 106.398438 62.664062 111.207031 58.207031 111.207031 50.855469 C 111.207031 44.671875 107.152344 39.515625 99.726562 39.515625 " fill-opacity="1" fill-rule="nonzero"/><path fill="#333333" d="M 123.214844 43.671875 C 125.582031 43.671875 127.304688 44.304688 128.273438 44.738281 L 129.492188 40.644531 C 128.058594 40.046875 126.046875 39.515625 123.324219 39.515625 C 117.621094 39.515625 114.175781 42.441406 114.175781 46.265625 C 114.175781 49.527344 116.792969 51.589844 120.8125 52.886719 C 123.71875 53.851562 124.863281 54.648438 124.863281 56.046875 C 124.863281 57.507812 123.539062 58.472656 121.027344 58.472656 C 118.695312 58.472656 116.4375 57.773438 114.964844 57.074219 L 113.851562 61.265625 C 115.214844 61.964844 117.941406 62.628906 120.703125 62.628906 C 127.339844 62.628906 130.460938 59.4375 130.460938 55.679688 C 130.460938 52.519531 128.453125 50.457031 124.183594 48.996094 C 121.0625 47.898438 119.699219 47.265625 119.699219 45.835938 C 119.699219 44.671875 120.847656 43.671875 123.214844 43.671875 " fill-opacity="1" fill-rule="nonzero"/><path fill="#333333" d="M 138.8125 62.296875 L 144.300781 62.296875 L 144.300781 44.140625 L 150.902344 44.140625 L 150.902344 39.882812 L 132.320312 39.882812 L 132.320312 44.140625 L 138.8125 44.140625 L 138.8125 62.296875 " fill-opacity="1" fill-rule="nonzero"/><path fill="#333333" d="M 169.222656 58.140625 L 159.289062 58.140625 L 159.289062 52.820312 L 168.183594 52.820312 L 168.183594 48.695312 L 159.289062 48.695312 L 159.289062 44.039062 L 168.722656 44.039062 L 168.722656 39.882812 L 153.800781 39.882812 L 153.800781 62.296875 L 169.222656 62.296875 L 169.222656 58.140625 " fill-opacity="1" fill-rule="nonzero"/><path fill="#333333" d="M 178.363281 43.640625 C 178.757812 43.574219 179.511719 43.472656 180.839844 43.472656 C 183.347656 43.507812 184.855469 44.539062 184.855469 46.601562 C 184.855469 48.5625 183.242188 49.828125 180.515625 49.828125 L 178.363281 49.828125 Z M 178.363281 53.484375 L 180.011719 53.484375 C 182.238281 53.515625 183.277344 54.28125 183.925781 57.074219 C 184.640625 59.835938 185.214844 61.664062 185.609375 62.296875 L 191.207031 62.296875 C 190.738281 61.433594 189.988281 58.507812 189.234375 55.976562 C 188.625 53.917969 187.691406 52.417969 186.003906 51.789062 L 186.003906 51.6875 C 188.085938 50.988281 190.273438 49.027344 190.273438 46.167969 C 190.273438 44.105469 189.484375 42.542969 188.050781 41.476562 C 186.328125 40.214844 183.816406 39.714844 180.230469 39.714844 C 177.324219 39.714844 174.707031 39.914062 172.949219 40.179688 L 172.949219 62.296875 L 178.363281 62.296875 L 178.363281 53.484375 " fill-opacity="1" fill-rule="nonzero"/><path fill="#333333" d="M 196.832031 62.664062 C 198.765625 62.664062 200.058594 61.367188 200.058594 59.601562 C 200.058594 57.773438 198.765625 56.511719 196.867188 56.511719 C 194.964844 56.511719 193.636719 57.808594 193.636719 59.601562 C 193.636719 61.367188 194.964844 62.664062 196.832031 62.664062 " fill-opacity="1" fill-rule="nonzero"/></svg>